<?xml version="1.0" encoding="utf-8"?>
<!-- Generator: Adobe Illustrator 17.0.0, SVG Export Plug-In . SVG Version: 6.00 Build 0)  -->
<!DOCTYPE svg PUBLIC "-//W3C//DTD SVG 1.1//EN" "http://www.w3.org/Graphics/SVG/1.1/DTD/svg11.dtd">
<svg version="1.1" id="Layer_1" xmlns="http://www.w3.org/2000/svg" xmlns:xlink="http://www.w3.org/1999/xlink" x="0px" y="0px"
	 width="595.28px" height="220px" viewBox="0 19.815 595.28 220" enable-background="new 0 19.815 595.28 220" xml:space="preserve"
	>
<g>
	<path fill="#1A213E" d="M77.197,151.311c-3.2,0.5-6.2,0.7-9,0.7c-6.2,0-10.8-1.1-13.7-3.3c-3-2.2-4.8-5.2-5.5-9.1h-0.4
		c-1.9,4.8-4.6,8.1-8,9.8c-3.4,1.7-8.3,2.5-14.7,2.5c-2.9,0-5.9-0.3-8.9-0.9c-3-0.6-5.8-1.6-8.4-2.9c-2.5-1.3-4.6-3.2-6.2-5.5
		c-1.6-2.4-2.4-5.2-2.4-8.6c0-3.5,0.7-6.4,2.1-8.8c1.4-2.4,3.2-4.4,5.5-6c2.2-1.6,4.8-3,7.6-4c2.8-1,5.8-2,8.8-3
		c5-1.5,9-2.7,12.1-3.7c3.1-1,5.5-2.1,7.2-3.3s2.9-2.5,3.5-3.9c0.7-1.5,1-3.3,1-5.6v-11.1c0-3.3-0.8-6.2-2.4-8.9
		c-1.6-2.7-4.5-4-8.9-4c-2.8,0-5.2,0.6-7.3,1.9s-3.1,3.6-3.1,7c0,0.4,0.1,1,0.2,1.9s0.2,1.9,0.4,3c0.2,1.1,0.4,2.1,0.5,3.1
		c0.1,1,0.2,1.6,0.2,2c0,1.8-0.4,3.2-1.3,4.3c-0.8,1-1.8,1.8-3,2.3s-2.4,0.8-3.6,0.8c-1.3,0.1-2.3,0.1-3.2,0.1
		c-1.2,0-2.5-0.1-3.7-0.3c-1.3-0.2-2.4-0.6-3.4-1.3c-1-0.7-1.8-1.6-2.5-2.8c-0.7-1.2-1-2.8-1-4.9c0-3.1,0.9-6,2.6-8.5
		c1.8-2.5,4.1-4.5,7-6.2c2.9-1.6,6.2-2.9,9.9-3.7s7.5-1.3,11.5-1.3c4.6,0,8.9,0.4,13,1.1s7.6,2.1,10.5,4c3,1.9,5.3,4.6,7.1,7.9
		c1.8,3.3,2.6,7.5,2.6,12.6v45.098c0,2.3,0.3,4.3,1,6.1c0.7,1.8,2.3,2.6,5,2.6c1.6,0,2.9-0.3,3.9-0.9c1-0.6,2-1.5,3-2.5l1.6,1.6
		C82.897,149.311,80.397,150.811,77.197,151.311z M47.498,104.612c-0.2,0.7-0.7,1.4-1.4,2.1c-0.7,0.7-1.8,1.4-3.5,2.3
		c-2.3,1.1-4.6,2.2-6.9,3.2c-2.3,1-4.4,2.3-6.2,3.9s-3.3,3.5-4.5,5.8s-1.7,5.3-1.7,8.9c0,1.5,0.1,3.2,0.3,5.1
		c0.2,1.9,0.7,3.8,1.5,5.6c0.8,1.8,2,3.4,3.5,4.6c1.6,1.3,3.8,1.9,6.5,1.9c1.6,0,3.1-0.4,4.6-1.1c1.5-0.7,2.9-1.8,4.1-3.4
		c1.2-1.5,2.2-3.5,2.9-6c0.7-2.5,1.1-5.5,1.1-9v-23.899H47.498z"/>
	<path fill="#1A213E" d="M131.795,71.713v2.5h-13.1l22.399,50.398l19.799-50.298h-14v-2.5h25.399v2.5h-8.4l-32.099,80.297h-1.5
		L94.197,74.313h-9.8v-2.5h47.398V71.713z"/>
	<path fill="#1A213E" d="M211.793,71.713v75.397h12.2v2.5h-46.498v-2.5h12.2V74.313h-12.2v-2.5h34.299V71.713z M191.593,23.615
		c2.5-2.5,5.6-3.8,9.1-3.8c3.5,0,6.5,1.3,9.1,3.8c2.5,2.5,3.8,5.6,3.8,9.1c0,3.5-1.3,6.5-3.8,9.1c-2.5,2.5-5.6,3.8-9.1,3.8
		c-3.5,0-6.5-1.3-9.1-3.8c-2.5-2.5-3.8-5.6-3.8-9.1C187.794,29.115,189.094,26.115,191.593,23.615z"/>
	<path fill="#1A213E" d="M258.991,112.212c0,4.4,0.2,8.8,0.5,13.2c0.4,4.4,1.3,8.4,2.9,12c1.6,3.6,3.9,6.5,6.9,8.8
		c3,2.3,7.3,3.5,12.7,3.5c4.8,0,8.9-0.9,12.3-2.7c3.3-1.8,6.1-3.9,8.2-6.3c2.1-2.4,3.7-4.7,4.7-7s1.6-4,1.7-5.1l2.5,0.9
		c-0.6,2.3-1.6,4.8-3.1,7.4s-3.5,5-6,7.3c-2.5,2.2-5.7,4.1-9.4,5.6c-3.8,1.5-8.3,2.3-13.6,2.3c-6.3,0-12.2-0.9-17.599-2.8
		c-5.5-1.9-10.2-4.6-14.3-8.2c-4.1-3.6-7.2-7.9-9.5-13.1c-2.3-5.1-3.5-11-3.5-17.499c0-5.2,1.1-10.3,3.3-15.299s5.2-9.4,9-13.2
		c3.8-3.8,8.3-6.9,13.4-9.3s10.7-3.5,16.599-3.5c4.2,0,8.5,0.7,12.7,2c4.2,1.3,8.1,3.4,11.4,6.2c3.4,2.8,6.2,6.4,8.4,10.8
		c2.2,4.4,3.3,9.7,3.3,15.899h-53.598v8.1H258.991z M288.09,89.313c0-1.3-0.1-3-0.2-4.9c-0.1-1.9-0.5-3.9-1.3-5.8
		c-0.7-1.9-1.9-3.6-3.5-4.9c-1.6-1.3-3.9-2-6.8-2c-4.1,0-7.3,1-9.5,2.9c-2.2,1.9-3.9,4.4-5,7.4c-1.1,3-1.8,6.2-2.1,9.6
		c-0.3,3.5-0.5,6.8-0.6,9.9h28.999V89.313z"/>
	<path fill="#1A213E" d="M338.589,147.111V74.313h-12v-2.5h33.799v18.199h0.4c0.5-1.1,1.3-2.8,2.5-5c1.2-2.2,3-4.5,5.3-6.6
		c2.3-2.2,5.3-4.1,8.9-5.7s8.2-2.5,13.6-2.5c8,0,14.2,2.3,18.599,6.9c4.4,4.6,6.6,10.9,6.6,18.899v51.198h12.2v2.5h-45.598v-2.5
		h11.3V89.713c0-5.1-1-8.8-3.1-11.2c-2.1-2.4-4.8-3.5-8.4-3.5c-2.9,0-5.7,0.7-8.4,2.1c-2.7,1.4-5,3.5-7,6.3c-2,2.8-3.6,6.2-4.8,10.4
		c-1.2,4.1-1.8,9-1.8,14.5v38.899h11.4v2.5h-45.598v-2.5h12.1V147.111z"/>
	<path fill="#1A213E" d="M443.985,123.312c1.5,3.4,2.9,6.7,4.5,9.8c1.5,3.2,3.3,5.9,5.4,8.4c2.1,2.4,4.5,4.4,7.5,5.9
		c2.9,1.5,6.5,2.3,10.7,2.3c1.1,0,2.5-0.1,4.4-0.2c1.8-0.1,3.6-0.6,5.4-1.5s3.3-2.3,4.5-4.2c1.3-1.9,1.9-4.6,1.9-8.1
		c0-1.1-0.2-2.2-0.5-3.4c-0.3-1.1-0.9-2.3-1.9-3.5c-1-1.2-2.4-2.4-4.3-3.5c-1.9-1.1-4.5-2.3-7.7-3.5l-14.799-5.6
		c-1.7-0.6-3.5-1.4-5.5-2.5c-1.9-1-3.7-2.4-5.4-4.1c-1.6-1.7-3-3.7-4.1-6.1c-1.1-2.4-1.6-5.2-1.6-8.4c0-3.5,0.7-6.8,2.2-10
		c1.5-3.1,3.5-5.9,6.1-8.3c2.6-2.4,5.8-4.2,9.4-5.6c3.7-1.4,7.7-2.1,12.1-2.1c2.3,0,4.5,0.2,6.5,0.7s3.8,1,5.5,1.5
		c1.6,0.5,3.1,1.1,4.4,1.5c1.3,0.5,2.3,0.7,3,0.7c1.3,0,2.2-0.2,2.5-0.7c0.4-0.5,0.7-1,0.9-1.6h2.5v22.199h-2.4
		c-1.2-2.9-2.5-5.7-3.7-8.4c-1.3-2.7-2.8-5-4.5-7c-1.8-2-3.9-3.6-6.5-4.7c-2.5-1.2-5.7-1.7-9.4-1.7c-4,0-7.7,1.1-11,3.2
		c-3.3,2.1-5,5.2-5,9.4c0,0.8,0.1,1.8,0.4,2.9c0.2,1.1,0.8,2.2,1.6,3.4c0.8,1.2,2.2,2.3,4,3.5s4.2,2.3,7.3,3.4l15.399,5.3
		c6.5,2.3,11.5,5.3,14.9,9.1s5.1,8.5,5.1,14.4c0,4-0.9,7.6-2.6,10.8c-1.8,3.2-4.1,5.9-6.9,8.2c-2.8,2.2-6.1,4-9.9,5.2
		s-7.6,1.8-11.6,1.8c-2.2,0-4.5-0.2-7.1-0.7c-2.5-0.5-5-1.1-7.4-1.7c-2.4-0.7-4.5-1.2-6.5-1.7c-1.9-0.5-3.5-0.7-4.5-0.7
		c-1,0-1.7,0.2-2.1,0.5c-0.4,0.4-0.8,1-1.2,2h-2.5v-26.299h2.5V123.312z"/>
	<path fill="#1A213E" d="M541.782,112.212c0,4.4,0.2,8.8,0.5,13.2c0.4,4.4,1.3,8.4,2.9,12c1.6,3.6,3.9,6.5,6.9,8.8
		c3,2.3,7.3,3.5,12.7,3.5c4.8,0,8.9-0.9,12.3-2.7c3.3-1.8,6.1-3.9,8.2-6.3c2.1-2.4,3.7-4.7,4.7-7c1-2.3,1.6-4,1.7-5.1l2.5,0.9
		c-0.6,2.3-1.6,4.8-3.1,7.4s-3.5,5-6,7.3c-2.5,2.2-5.7,4.1-9.4,5.6c-3.8,1.5-8.3,2.3-13.6,2.3c-6.3,0-12.2-0.9-17.599-2.8
		c-5.5-1.9-10.2-4.6-14.299-8.2c-4.1-3.6-7.2-7.9-9.5-13.1c-2.3-5.1-3.5-11-3.5-17.499c0-5.2,1.1-10.3,3.3-15.299s5.2-9.4,9-13.2
		s8.3-6.9,13.4-9.3c5.1-2.4,10.7-3.5,16.599-3.5c4.2,0,8.5,0.7,12.7,2c4.2,1.3,8.1,3.4,11.4,6.2c3.4,2.8,6.2,6.4,8.4,10.8
		c2.2,4.4,3.3,9.7,3.3,15.899h-53.598v8.1H541.782z M570.781,89.313c0-1.3-0.1-3-0.2-4.9s-0.5-3.9-1.3-5.8c-0.7-1.9-1.9-3.6-3.5-4.9
		c-1.6-1.3-3.9-2-6.8-2c-4.1,0-7.3,1-9.5,2.9c-2.2,1.9-3.9,4.4-5,7.4c-1.1,3-1.8,6.2-2.1,9.6c-0.3,3.5-0.5,6.8-0.6,9.9h29.099v-12.2
		H570.781z"/>
</g>
</svg>
