<?xml version="1.0" encoding="UTF-8"?>
<svg xmlns="http://www.w3.org/2000/svg" xmlns:xlink="http://www.w3.org/1999/xlink" width="316.5pt" height="365pt" viewBox="0 0 316.5 365" version="1.1">
<g id="surface1">
<path style=" stroke:none;fill-rule:nonzero;fill:rgb(99.198914%,73.298645%,18.399048%);fill-opacity:1;" d="M 95.722656 188.011719 L 95.722656 196.519531 L 69.800781 196.519531 L 69.800781 135.148438 L 164.132813 135.148438 L 175.992188 147 L 175.992188 184.667969 L 164.132813 196.519531 L 146.78125 196.519531 L 146.78125 188.011719 L 160.804688 188.011719 L 160.804688 141.996094 L 81.691406 141.996094 L 81.691406 188.011719 Z M 69.800781 51.058594 L 163.109375 51.058594 L 172.128906 61.664063 L 172.128906 73.484375 L 163.109375 84.089844 L 69.800781 84.089844 Z M 237.394531 141.996094 L 237.394531 188.011719 L 251.417969 188.011719 L 251.417969 304.664063 L 242.132813 313.949219 L 156.066406 313.949219 L 146.78125 304.664063 L 146.78125 247.570313 L 185.285156 247.570313 L 227.050781 205.816406 L 227.050781 125.847656 L 209.523438 108.324219 L 223.191406 92.261719 L 223.191406 42.890625 L 186.707031 0 L 0 0 L 0 51.058594 L 18.746094 51.058594 L 18.746094 196.519531 L 0 196.519531 L 0 247.570313 L 95.722656 247.570313 L 95.722656 325.808594 L 134.917969 364.996094 L 263.28125 364.996094 L 302.472656 325.808594 L 302.472656 188.011719 L 316.503906 188.011719 L 316.503906 141.996094 L 237.394531 141.996094 "/>
<path style=" stroke:none;fill-rule:nonzero;fill:rgb(1.599121%,28.599548%,20.399475%);fill-opacity:1;" d="M 245.648438 150.246094 L 245.648438 179.757813 L 259.671875 179.757813 L 259.671875 308.082031 L 245.546875 322.203125 L 152.648438 322.203125 L 138.527344 308.082031 L 138.527344 247.574219 L 103.976563 247.574219 L 103.976563 322.390625 L 138.335938 356.746094 L 259.863281 356.746094 L 294.230469 322.390625 L 294.230469 179.757813 L 308.246094 179.757813 L 308.246094 150.246094 L 245.648438 150.246094 "/>
<path style=" stroke:none;fill-rule:nonzero;fill:rgb(1.599121%,28.599548%,20.399475%);fill-opacity:1;" d="M 89.949219 179.761719 L 103.980469 179.761719 L 103.980469 196.515625 L 138.527344 196.515625 L 138.527344 179.761719 L 152.550781 179.761719 L 152.550781 150.25 L 89.949219 150.25 L 89.949219 179.761719 "/>
<path style=" stroke:none;fill-rule:nonzero;fill:rgb(1.599121%,28.599548%,20.399475%);fill-opacity:1;" d="M 61.542969 204.773438 L 61.542969 126.894531 L 167.558594 126.894531 L 184.242188 143.578125 L 184.242188 188.078125 L 167.558594 204.773438 Z M 61.542969 42.804688 L 166.921875 42.804688 L 180.382813 58.628906 L 180.382813 76.519531 L 166.921875 92.34375 L 61.542969 92.34375 Z M 218.792969 202.398438 L 218.792969 129.269531 L 198.300781 108.777344 L 214.933594 89.226563 L 214.933594 45.921875 L 182.890625 8.253906 L 8.253906 8.253906 L 8.253906 42.804688 L 26.992188 42.804688 L 26.992188 204.773438 L 8.253906 204.773438 L 8.253906 239.324219 L 181.863281 239.324219 L 218.792969 202.398438 "/>
<path style=" stroke:none;fill-rule:nonzero;fill:rgb(1.599121%,28.599548%,20.399475%);fill-opacity:1;" d="M 295.652344 356.863281 L 293.675781 356.863281 L 293.675781 355.027344 L 295.652344 355.027344 C 296.152344 355.027344 296.5625 355.433594 296.5625 355.945313 C 296.5625 356.449219 296.152344 356.863281 295.652344 356.863281 M 298.140625 355.945313 C 298.140625 354.566406 297.027344 353.449219 295.652344 353.449219 L 292.101563 353.449219 L 292.101563 361.851563 L 293.675781 361.851563 L 293.675781 358.441406 L 294.8125 358.441406 L 296.402344 361.851563 L 298.148438 361.851563 L 296.480469 358.292969 C 297.453125 357.957031 298.140625 357.023438 298.140625 355.945313 M 295.128906 363.429688 C 291.933594 363.429688 289.347656 360.835938 289.347656 357.65625 C 289.347656 354.460938 291.933594 351.875 295.128906 351.875 C 298.316406 351.875 300.902344 354.460938 300.902344 357.65625 C 300.902344 360.835938 298.316406 363.429688 295.128906 363.429688 M 295.128906 350.304688 C 291.0625 350.304688 287.769531 353.589844 287.769531 357.65625 C 287.769531 361.710938 291.0625 365 295.128906 365 C 299.183594 365 302.472656 361.710938 302.472656 357.65625 C 302.472656 353.589844 299.183594 350.304688 295.128906 350.304688 "/>
</g>
</svg>
