<?xml version="1.0" standalone="no"?>
<!DOCTYPE svg PUBLIC "-//W3C//DTD SVG 20010904//EN"
 "http://www.w3.org/TR/2001/REC-SVG-20010904/DTD/svg10.dtd">
<svg version="1.0" xmlns="http://www.w3.org/2000/svg"
 width="64.000000pt" height="64.000000pt" viewBox="0 0 64.000000 64.000000"
 preserveAspectRatio="xMidYMid meet">

<g transform="translate(0.000000,64.000000) scale(0.100000,-0.100000)"
fill="#000000" stroke="none">
<path d="M138 490 c-27 -27 -30 -36 -25 -73 13 -93 131 -117 173 -34 51 97
-71 184 -148 107z m88 -55 c12 -39 2 -54 -21 -35 -18 15 -20 70 -2 70 6 0 17
-16 23 -35z"/>
<path d="M326 483 c7 -16 14 -34 14 -40 0 -9 20 -13 64 -13 36 0 76 -4 90 -10
24 -9 26 -7 26 19 0 16 -10 37 -23 49 -20 19 -35 22 -105 22 l-81 0 15 -27z"/>
<path d="M318 360 c-35 -61 -109 -85 -168 -55 l-30 16 0 -74 c0 -64 3 -76 23
-95 22 -21 33 -22 178 -22 150 0 156 1 177 23 19 20 22 35 22 106 0 74 -2 84
-25 106 -21 22 -33 25 -92 25 -65 0 -69 -1 -85 -30z m97 -135 c0 -25 -4 -30
-24 -30 -28 0 -47 25 -38 49 5 12 16 16 34 14 24 -3 28 -8 28 -33z"/>
</g>
</svg>
