<?xml version="1.0" encoding="utf-8"?>
<!-- Generator: Adobe Illustrator 24.1.2, SVG Export Plug-In . SVG Version: 6.00 Build 0)  -->
<svg version="1.1" id="Layer_1" xmlns="http://www.w3.org/2000/svg" xmlns:xlink="http://www.w3.org/1999/xlink" x="0px" y="0px"
	 viewBox="0 0 2560 1873" style="enable-background:new 0 0 2560 1873;" xml:space="preserve">
<style type="text/css">
	.st0{fill:#1D1F3C;}
	.st1{fill:#9FA0AC;}
	.st2{fill:#4D7882;}
	.st3{fill:#15244A;}
	.st4{fill:#436878;}
	.st5{fill:#18284D;}
	.st6{fill:#2D4762;}
	.st7{fill:#16254B;}
	.st8{fill:#213556;}
	.st9{fill:#426576;}
	.st10{fill:#203455;}
	.st11{fill:#17264C;}
	.st12{fill:#38576D;}
	.st13{fill:#3E6274;}
	.st14{fill:#3C5F72;}
	.st15{fill:#2A435F;}
	.st16{fill:#1A2B4F;}
	.st17{fill:#38596E;}
	.st18{fill:#37586D;}
	.st19{fill:#28405D;}
	.st20{fill:#3C5E72;}
	.st21{fill:#3B6274;}
	.st22{fill:#314D66;}
	.st23{fill:#406375;}
	.st24{fill:#3B5E71;}
	.st25{fill:#375C70;}
	.st26{fill:#3C5E71;}
	.st27{fill:#324F67;}
	.st28{fill:#406677;}
	.st29{fill:#29425E;}
	.st30{fill:#446A79;}
	.st31{fill:#17274C;}
	.st32{fill:#223858;}
	.st33{fill:#2E4A64;}
	.st34{fill:#466E7C;}
	.st35{fill:#3A5C70;}
	.st36{fill:#2F4A64;}
	.st37{fill:#3F6375;}
	.st38{fill:#233958;}
	.st39{fill:#466D7C;}
	.st40{fill:#26405D;}
	.st41{fill:#3D5E71;}
	.st42{fill:#2C4862;}
	.st43{fill:#335068;}
	.st44{fill:#1C2E51;}
	.st45{fill:#37576C;}
	.st46{fill:#1D2E51;}
	.st47{fill:#2C4762;}
	.st48{fill:#17284D;}
	.st49{fill:#436B7A;}
	.st50{fill:#39566C;}
	.st51{fill:#3A5A6F;}
	.st52{fill:#26415E;}
	.st53{fill:#3E6173;}
	.st54{fill:#476F7D;}
	.st55{fill:#416677;}
	.st56{fill:#1B2C50;}
	.st57{fill:#304D66;}
	.st58{fill:#243A59;}
	.st59{fill:#3A5D71;}
	.st60{fill:#34536A;}
	.st61{fill:#223C5A;}
	.st62{fill:#37576D;}
	.st63{fill:#192A4E;}
	.st64{fill:#345269;}
	.st65{fill:#335269;}
	.st66{fill:#2A4460;}
	.st67{fill:#29425F;}
	.st68{fill:#243B5A;}
	.st69{fill:#1E3253;}
	.st70{fill:#263D5B;}
	.st71{fill:#283E5C;}
	.st72{fill:#25425E;}
	.st73{fill:#282F49;}
	.st74{fill:#292F49;}
	.st75{fill:#354E61;}
	.st76{fill:#33465B;}
	.st77{fill:#384F62;}
	.st78{fill:#395164;}
	.st79{fill:#142249;}
	.st80{fill:#4C7682;}
	.st81{fill:#1B2D50;}
	.st82{fill:#15234A;}
	.st83{fill:#2C4761;}
	.st84{fill:#192A4F;}
	.st85{fill:#19294E;}
	.st86{fill:#4A7480;}
	.st87{fill:#16264B;}
	.st88{fill:#1D2F52;}
	.st89{fill:#18274D;}
	.st90{fill:#223556;}
	.st91{fill:#395C70;}
	.st92{fill:#233858;}
	.st93{fill:#18294E;}
	.st94{fill:#406676;}
	.st95{fill:#314E67;}
	.st96{fill:#335169;}
	.st97{fill:#1A2C4F;}
	.st98{fill:#16244B;}
	.st99{fill:#2C4661;}
	.st100{fill:#19294D;}
	.st101{fill:#29415E;}
	.st102{fill:#16264C;}
	.st103{fill:#18264C;}
</style>
<g>
	<g>
		<path class="st0" d="M0,1870.49C0,1247.04,0,623.6,0,0c853.07,0,1706.13,0,2559.9,0c0,623.4,0,1246.94,0,1870.49
			c-3.45,1.92-7.19,0.95-10.78,0.95c-846.11,0.05-1692.22,0.05-2538.34,0C7.19,1871.44,3.45,1872.41,0,1870.49z"/>
		<path class="st1" d="M0,1870.49c853.3,0,1706.6,0,2559.9,0c-0.44,0.61,1.01,2.08-1,2.02c-2.66-0.09-5.33-0.02-8-0.02
			c-847.3,0-1694.6,0-2541.9-0.12C6.07,1872.37,2.22,1874.67,0,1870.49z"/>
		<path class="st2" d="M1282.02,1843.93c-411.28,0-822.57,0.01-1233.85-0.01c-22.5,0-19.84,1.53-19.84-19.88
			C28.28,1231.85,28.29,639.66,28.3,47.47c0-4.66,0.06-9.32,0.17-13.98c0.09-4.03,2.28-6.08,6.27-6.17c4.66-0.11,9.33-0.2,13.99-0.2
			c560.6-0.01,1121.2-0.01,1681.8-0.01c261.64,0,523.27-0.01,784.91,0.01c20.82,0,18.83-1.18,18.83,18.97
			c0.03,593.19,0.02,1186.38,0.02,1779.56c0,3.66-0.15,7.33-0.06,10.99c0.13,5.12-2.53,7.19-7.36,7.18c-4.33-0.01-8.66,0.1-13,0.1
			C2103.25,1843.93,1692.63,1843.93,1282.02,1843.93z"/>
		<path class="st0" d="M1388.14,305.47c29.87,28.54,49.9,63.05,61.43,102.47c30.55,104.48-12.5,215.15-105.45,271.95
			c-3.04,1.86-6.82,2.86-9.21,7.73c14.35,5.79,29.11,9.07,44.06,11.66c14.76,2.55,29.7,3.37,45.34,4.08
			c-1.5,2.96-3.87,3.08-5.85,3.58c-29.43,7.47-59.21,8.78-89.27,5.01c-3.97-0.5-7.92-1.07-11.87-1.72c-3.18-0.53-4.76,0.59-5.76,3.8
			c-3.35,10.78-11.82,18.33-17.9,27.4c-1.73,2.58-4.03,2.22-5.69-0.17c-5.87-8.45-13.66-15.79-17.18-25.57
			c-1.8-5.02-3.69-6.04-8.51-5.14c-19.77,3.68-39.75,3.96-59.76,2.79c-13.68-0.8-27.1-3.33-40.37-6.67
			c-1.52-0.38-3.3-0.55-4.65-3.26c30.52-1.25,60.32-4.52,89.19-15.69c-1.54-4.72-5.41-5.6-8.28-7.37
			c-51.87-31.83-88.01-76.47-105.1-134.77c-25.19-85.93-7.11-163.18,51.17-231.08c2.8-3.27,6.14-6.08,9.23-9.1
			c2.11-0.53,3,0.17,2.41,2.37c-14.43,26.48-26.13,54.06-31.03,83.96c-16.48,100.64,14.04,184.52,90.84,251.57
			c2.88,2.52,6.04,7.29,9.77,5.69c4.05-1.73,1.91-7.15,1.75-10.89c-2.25-55.57-5.34-111.11-6.79-166.69
			c-1.2-45.6-0.49-91.25-0.62-136.88c-0.02-7.99,0.17-15.99-0.02-23.98c-0.12-4.85,1.63-8.09,5.93-10.53
			c7.88-4.46,14.84-10.2,20.57-17.25c3.09-3.8,5.53-3.97,8.67-0.07c5.48,6.81,12.04,12.59,19.73,16.68
			c5.61,2.99,6.97,7.19,6.93,13.03c-0.18,23.98-0.34,47.97-0.01,71.94c0.92,65.98-2.36,131.84-5.32,197.71
			c-0.84,18.63-1.52,37.27-2.24,55.9c-0.1,2.66-0.18,5.33-0.04,7.99c0.2,4.06,2.34,4.33,5.29,2.37c1.38-0.92,2.69-1.97,3.97-3.03
			c56.98-47.1,89.56-107.29,96.67-180.93c5.18-53.64-6.16-103.94-31.84-151.16c-0.95-1.75-1.74-3.59-2.61-5.39
			C1385.14,305.65,1386.01,304.91,1388.14,305.47z"/>
		<path class="st0" d="M1457.74,649.27c23.96-34.91,39.77-73.12,44.74-115.24c10.87-92.18-18.34-169.72-86.64-232.59
			c-2.81-2.58-6.53-4.41-8.69-10.18c28.7,8.26,52.84,21.53,74.24,39.91c32.03,27.52,53.32,61.85,63.8,102.7
			c21.41,83.42-12.59,170.03-85.18,217.66C1457.92,652.11,1457.22,651.3,1457.74,649.27z"/>
		<path class="st0" d="M1121.87,651.63c-72.74-47.83-106.8-134.46-85.33-217.74c10.53-40.84,31.77-75.24,63.89-102.72
			c23.55-20.15,55.9-36.9,73.37-38.34c-0.58,3.84-3.98,5.15-6.34,7.23c-50.93,44.89-81.05,101.03-88.93,168.31
			c-7.7,65.8,8.11,126.24,45.63,180.93C1124.67,651.34,1123.91,652.12,1121.87,651.63z"/>
		<path class="st3" d="M1290.15,1101.14c2.68-2.48,5.31-5.02,8.1-7.37c0.63-0.53,2.01-0.78,2.72-0.45c1.46,0.67,1.37,2.2,0.68,3.4
			c-4.58,8.07-9.1,16.21-15.64,22.93c-24.57,25.26-50.06,49.58-76.09,73.33c-3.6,2.65-5.98,4.96,0.57,7.03
			c18.54,5.85,24.83,17.28,19.83,35.58c-2.73,9.99-8.05,12.14-16.13,5.52c-4.47-3.66-8.84-5.69-14.43-5.08
			c-5.44,0.6-10.51,2.91-9.57,9.03c0.92,6,6.27,8.07,12.14,7.61c4.58-0.35,7.56-3.9,11.19-6.17c0.78-0.75,1.7-1.19,2.76-1.35
			c9.02-0.09,11.42,2.32,7.93,10.07c-4.99,11.07-10.62,21.97-21.16,29.26c-5.32,3.68-11.31,8.26-17.21,4.36
			c-6.65-4.39-14.41-9.48-14.77-18.89c-0.51-12.94-3.48-27.17,0.8-38.51c4.4-11.67,3.84-22.87,5.6-34.26
			c0.65-4.18,3.54-5.23,7.43-2.98c2.68,1.55,5.27,4.75,8.74,1.3C1225.67,1163.91,1259.21,1133.85,1290.15,1101.14z"/>
		<path class="st0" d="M1224.83,234.9c2.82,1.97,3.28,4.78,4.66,6.99c12.31,19.79,38,23.27,55.07,7.38
			c1.21-1.13,2.32-2.38,3.39-3.65c1.87-2.22,3.72-2.6,5.71-0.17c0.84,1.03,1.72,2.04,2.67,2.96c17.95,17.32,44.24,13.58,56.79-8.07
			c0.99-1.7,1.85-3.47,3.31-6.23c3.08,3.87,3.3,7.69,3.04,11.41c-1.05,14.67-7.47,26.27-20.97,32.77
			c-13.32,6.41-26.43,5.28-38.77-3.19c-3-2.06-5.03-6.16-8.69-6.34c-3.79-0.19-5.72,4.12-8.7,6.15
			c-13.02,8.91-26.73,10.05-40.51,2.6c-13.91-7.52-19.77-20.05-19.43-35.62C1222.45,239.61,1222.75,237.24,1224.83,234.9z"/>
		<path class="st4" d="M1697.59,1281.27c-10.73-5.12-14.66-13.83-13.36-25.29c0.63-5.61,1.25-11.21,1.91-16.82
			c0.5-4.15,1.68-8.03,6.39-9.04c4.58-0.98,6.5,2.34,8.12,5.77c4.98,10.56,15.67,11.55,24.93,13.81
			c10.65,2.59,21.83,1.16,32.79,1.23c8.97,0.06,17.95-0.18,26.91,0.06c14.65,0.39,28.78-3.24,43.16-4.92
			c14.82-1.73,28.05-7.06,41.31-13.02c5.56-2.5,10.49-5.67,14-10.78c1.32-1.92,2.7-4.28,5.51-2.97c3.12,1.45,4.62,4.8,3.22,7.5
			c-2.94,5.69-3.48,13.11-10.51,16.17c-1.85-1.28-2.04-3.78-3.84-5.09c-26.86,16.54-56.71,21.59-87.45,21.86
			c-22.56,0.19-45.2,1.81-67.74-1.31c-6.39-0.88-12.09-3.53-18.07-5.48c-8.72-2.84-12.46,0.58-10.78,9.77
			c0.81,4.41,3.3,7.93,5.9,11.41c0.65,1.65,0.14,3.25-0.15,4.86C1699.47,1280.11,1698.71,1280.87,1697.59,1281.27z"/>
		<path class="st5" d="M668.73,1101.63c-0.52,7.18-4.09,13.5-9.54,18.6c-3.45,3.23-7.75,2.33-10.73-0.88
			c-8.56-9.21-11.38-7.31-19.85,2.12c-1.33,1.48-2.7,2.92-4.07,4.36c-1.18,1.23-2.53,2.09-4.34,2.03
			c-7.38-0.25-15.45-13.7-11.89-20.23c3.17-5.81,6.87-11.32,10.29-16.99c2.23-3.69,5.15-3.96,8.32-1.5
			c4.24,3.28,7.58,7.23,9.9,12.23c2.2,4.73,3.55,4.63,6.76,0.27c2.75-3.73,5.11-7.79,8.11-11.3c4.45-5.2,6.44-5.06,11.35-0.38
			C666.27,1093.03,668.75,1096.43,668.73,1101.63z"/>
		<path class="st6" d="M1196.1,1195.06c-2.37,5.52-6.26,6.37-11.26,3.61c-4.47-2.46-6.12-0.21-6.46,3.9
			c-0.27,3.3-0.22,6.62-0.31,9.93c-0.08,2.98,0.45,6.34-1.28,8.74c-5.5,7.65-4.61,16.32-4.7,24.87c-0.06,5.96,0.19,11.93-0.02,17.89
			c-0.35,10.15,5.5,16.63,12.83,22.26c3.58,2.75,7.56,2.45,11.21,0.27c3.68-2.2,7.26-4.65,10.56-7.37
			c7.95-6.54,11.61-15.96,16.08-24.8c0.73-1.45,1.11-3.4-0.42-4.59c-1.69-1.32-3.03,0.43-4.45,1.1c-3.55-1.31-4.47-4.53-5.72-7.62
			c-1.47-3.63-4.27-5.88-8.18-6.46c-4.13-0.61-8.02-0.02-10.76,3.51c-1.56,2.01-1.57,4.37-0.08,6.48c2.67,3.77,6.5,4.49,10.6,3.25
			c4.89-1.48,9.62-2.8,14.13,0.85c-9.66,10.71-17.85,12.13-28.68,5.86c-6.11-3.54-7.91-8.49-7.25-14.96
			c0.66-6.45,4.89-10.08,10.44-12.07c10.47-3.77,20.79-0.45,27.84,8.47c2.84,3.59,5.01,3.34,7.3-0.85
			c5.27-9.61,2.25-23.83-6.58-30.41c-3.46-2.58-7.38-4.34-11.36-6.07c-5.04-2.19-4.85-3.58,0.35-7.86
			c-0.35,1.99-0.71,4.09,1.49,5.25c1.45,0.76,3.19,0.96,4.66,1.7c10.54,5.28,17.45,12.48,16.16,25.66
			c-2.12,21.72-8.57,41.36-24.35,57.11c-6.17,6.15-13.6,10.87-22.3,6.99c-9.12-4.08-15.72-11.25-15.83-22.2
			c-0.12-11.94,0.09-23.88,0.19-35.82c0.01-1.31-0.1-2.91,0.57-3.9c6.85-10.12,4.9-21.64,5.46-32.76c6.68-9.8,3.94-21.34,5.93-32.01
			l-0.01-0.04c0.77-0.69,1.66-0.98,2.69-0.82c4.54,6.83,1.51,15.2,4.51,22.34c-0.05,0.96,0.09,1.97-0.18,2.87
			C1187,1193.96,1189.45,1196.44,1196.1,1195.06z"/>
		<path class="st7" d="M2131.98,1202.94c1.32,1.33,2.65,2.67,3.97,4c7.88,12.76,1.34,25.79,0.66,38.7c-0.12,2.24-2.4,3.72-4.31,3.23
			c-6.6-1.68-13.29-0.21-19.84-1.07c-6.08-0.79-8.57-6.27-8.04-10.89c1.54-13.45,8.04-24.96,17.43-34.66
			C2125.1,1198.91,2128.87,1198.69,2131.98,1202.94z"/>
		<path class="st8" d="M1639.93,1250.94c-4.48,8.65-10.36,15.33-20.95,16.37c-4.08,0.4-7.03,3.62-10.13,6.11
			c-6.22,4.99-12.86,9.29-19.61,13.57c-11.06,7.01-19.8,1.99-26.63-5.23c-4.54-4.8-8.64-11.03-8.5-18.63
			c0.03-1.95,0.04-4.55-1.1-5.75c-6.16-6.48-3.83-13.37-1.93-20.54c1.88-7.07,2.69-14.35,2.66-21.71
			c-0.03-9.65,0.36-19.14,4.53-28.28c2.48-5.45,1.2-11.82,1.83-17.76c0.36-3.45-0.42-8.85,4.14-8.9c5.13-0.06,3.48,5.47,3.71,8.75
			c0.73,10.04-1.35,19.84-2.98,29.68c-1.09,6.55-2.5,13.17-2.49,19.75c0,13.08,5.61,24.25,13.65,34.31
			c0.64,0.78,0.92,1.68,0.91,2.69c-5.92,3.92-11.31,1.58-13.47-6.81c-3.11-12.07-8.64-23.85-5.54-34.78
			c0.82,7.88-2.27,18.24,4.18,27.75c2.11,3.1,1.05,8.2,0.87,12.49c-0.44,10.94,2.69,20.36,13.24,25.77c1,0.27,2.04,0.48,3.08,0.48
			c0.59-0.12,1.2-0.21,1.79-0.36c0.55-0.24,1.11-0.45,1.67-0.7c0.53-0.32,1.06-0.61,1.59-0.93c0.52-0.35,1.06-0.66,1.61-0.96
			c0.57-0.27,1.15-0.54,1.72-0.81c0.86-0.41,1.75-0.77,2.6-1.2c0.83-0.48,1.63-0.99,2.4-1.55c0.48-0.41,0.98-0.79,1.48-1.17
			c-0.01,0,0.74-0.56,0.74-0.56c0.46-0.39,0.96-0.73,1.48-1.03c0.48-0.32,0.98-0.64,1.47-0.95c-0.01-0.01,0.72-0.48,0.71-0.49
			c0.46-0.36,0.93-0.71,1.39-1.07c0.47-0.39,0.94-0.78,1.41-1.18c0.5-0.43,1-0.84,1.53-1.24c0.56-0.44,1.13-0.84,1.73-1.23
			c0.63-0.44,1.25-0.86,1.88-1.29c2.01-1.38,3.83-3.02,5.97-4.18c0.76-0.28,1.54-0.54,2.32-0.78c1.94-0.44,3.89-0.41,5.82,0.04
			c0.69,0.13,1.4,0.2,2.1,0.22c0.65-0.06,1.3-0.22,1.92-0.46c0.57-0.24,1.14-0.51,1.68-0.8c-0.01,0.01,0.75-0.51,0.74-0.5
			s0.68-0.56,0.67-0.55c0.44-0.35,0.84-0.75,1.17-1.21c0.31-0.45,0.64-0.89,0.98-1.33c0.32-0.44,0.64-0.89,0.94-1.35
			c0.28-0.48,0.57-0.96,0.83-1.45c0.24-0.53,0.47-1.05,0.68-1.6c0.17-0.59,0.34-1.17,0.47-1.77c0.09-0.66,0.18-1.3,0.24-1.96
			c0.03-1.09,0.02-2.17-0.04-3.26c-0.05-1.25,0.03-2.46,0.86-3.49c1.96-1.11,3.58-2.76,5.77-3.48c1.49-0.17,2.78,0.39,4.04,1.1
			c0.7,0.71,1.05,1.57,1.1,2.56C1642.81,1242.99,1640.75,1246.71,1639.93,1250.94z"/>
		<path class="st9" d="M522.08,1267.01c0.21-6.46-2.39-10.74-8.97-12.47c-2.86-0.75-5.53-2.27-8.23-3.55
			c-9.16-4.35-11.7-8.86-10.37-19.04c0.99-7.54,1.89-15.08,2.6-22.65c0.76-8.16,5.77-15.37,13.1-20.2c1.19,1.06,2.44,1.51,3.86,0.36
			c0.62-0.51,1.24-1,1.89-1.48c1.38-1.15,2.89-1.92,4.76-1.69c1.49,0.3,2.41,1.31,3.13,2.54c-4.51,4.43-9.04,8.84-12.08,14.5
			c-3.28,6.11-2.78,8.58,3.13,12.34c3.07,1.96,6.43,3.47,9.69,5.14c7.16,3.68,10.85,9.63,11.25,17.54
			c0.43,8.66,0.19,17.15-3.51,25.4c-3.1,6.9-3.36,14.96-8.4,21.13c-1.52-0.19-2.98-0.67-4.49-0.92c-0.37,0.1-0.75,0.2-1.17,0.26
			c-0.66,0.53-1.27,1.1-1.97,1.59c-5.68,8.59-14.17,13.83-22.7,19.04c-15.52,4.57-30.79,2.78-45.91-1.84
			c-1.8-0.55-2.3-2.21-1.72-4.05c7.28,0,14.56-0.03,21.84,0c24.44,0.12,42.26-10.98,54.29-31.93c0.96,0.71,2.03,1.29,2.39,2.03
			C524.09,1268.35,523.04,1267.73,522.08,1267.01z"/>
		<path class="st10" d="M1271.77,985.45c-2.14-1.12-4.3-2.41-3.56-5.26c0.73-2.81,3.32-2.77,5.66-3.06
			c16.34-1.99,21.92-8.09,22.23-24.45c0.13-6.99,0.56-14.02-0.05-20.95c-0.95-10.66,3.11-19.33,9.07-27.71
			c3.59,1.52,2.74,4.54,2.47,6.86c-0.66,5.75,0.24,11.16,1.73,16.7c3.45,12.81,14.57,18.36,25.74,11.23
			c8.14-5.19,18.28-6.56,25.16-13.86c0.63-0.67,1.74-0.99,2.69-1.22c2.04-0.51,4.04-0.44,5.14,1.76c0.87,1.75,0.08,3.32-1.16,4.5
			c-5.58,5.28-11.51,10.3-18.85,12.72c-4.13,1.36-8.03,3.11-12.01,4.75c-0.98-0.18-1.96-0.36-2.92-0.54
			c-3.53-0.92-6.79,0.84-10.22,1.09c-13.98,1.04-18.78-3.34-18.96-17.3c0.05,0.23-0.06-0.08,0.05,0.11c0.11,0.19,0.16,0.31,0,0.44
			c-0.08,3.65,0.23,7.16,0.25,10.68c-0.68,5.38-0.65,10.41,5.37,13.15c2.67,1.22,3.62,3.56,2.62,6.49
			c-0.58,0.84-1.35,1.42-2.33,1.73c-7.36-2.14-9.54,3.71-11.39,8.33c-3.05,7.65-8.76,12.41-15.27,16.52
			c-4.61,2.9-8.87,2.75-11.59-2.84c2.84-3.83,7.69-1.34,10.85-3.43c-0.19,0.09-0.09,0.03-0.25,0.11
			C1278.9,983.93,1274.29,981.49,1271.77,985.45z"/>
		<path class="st11" d="M1424.07,1239.86c0.19,6.83-4.03,12.3-9.4,17.02c-2.81,2.47-6.05,2.5-9.11,0.12
			c-0.79-0.61-1.51-1.3-2.26-1.96c-12.49-11.06-13.65-9.34-4.5-23.97c2.11-3.37,3.93-6.93,5.99-10.33c1.15-1.9,2.96-2.62,5.13-1.9
			C1416.06,1220.87,1424.27,1232.59,1424.07,1239.86z"/>
		<path class="st12" d="M839.92,1206.92c0.01-0.65,0.03-1.3,0.06-1.95c1.67-4.59,2.38-9.44,3.91-14.07
			c-1.51-15.02,2.92-28.84,8.49-42.45c0.66-1.6,1.48-3.14,3.36-3.21c2.51-0.09,3.33,1.9,3.75,3.9c0.9,4.3,0.69,8.69-0.43,12.86
			c-4.69,17.47-4.5,35.55-6.77,53.31c-0.63,4.9-0.32,9.96,0.01,14.92c0.71,10.6,7.34,17.13,16.54,20.51
			c8.87,3.25,16.94-0.27,23.96-6.07c1.78-1.47,3.89-3.22,2.95-5.83c-1.16-3.2-4.12-2.65-6.81-2.47c-3.64,0.25-7.29,0.37-10.93,0.54
			c-0.69-1.14-0.74-2.31-0.15-3.51c2.72-3.11,6.57-4.3,10.23-5.58c4.55-1.6,8.97-2.08,12.22,3.02c3.12,4.88,3.9,9.58,0.3,14.38
			c-1.96,2.61-3.94,5.23-6.03,7.72c-0.8,0.88-1.59,1.77-2.37,2.68c-1.69,2.21-3.87,3.52-6.72,3.18c-7.78-0.95-15.54-1.31-23.36-0.24
			c-3.15,0.43-5.45-1.81-7.8-3.55c-0.91-0.66-1.82-1.34-2.74-1.99c-4.88-2.84-6.13-7.55-6.49-12.69
			c-0.64-12.27-1.41-24.52,2.69-36.52c2.2-6.42,0.96-13.29,1.3-18.23c2.59,12.47-6.12,25.53-4.02,39.73
			c0.33,2.26-1.09,4.52-4.11,4.6c-1.18-0.35-1.81-1.13-1.9-2.35C839.44,1220.67,837.87,1213.72,839.92,1206.92z"/>
		<path class="st13" d="M587.73,1236.9c0.05-5.68,0.67-11.21,2.74-16.61c1.94-5.05,1.55-10.49,1.46-15.79
			c-0.15-8.7,0.62-17.21,3.47-25.53c1.83-5.36,2.82-11,2.57-16.68c-0.36-8.24,4.14-14.51,7.96-21.09c0.86-1.48,2.08-2.7,4-2.37
			c2.36,0.41,3.35,2.33,3.35,4.34c-0.01,2.62-0.37,5.3-1.05,7.83c-2.6,9.68-4,19.51-4.11,29.53c-0.05,5.01-1.25,9.78-2.36,14.67
			c-2.28,9.99-4.19,20.11,1.46,29.96c1.75,3.06,1.94,7,2.93,10.51c0.37,1.3,1.08,2.6,2.67,2.49c1.51-0.11,2.33-1.39,2.52-2.7
			c2.14-15.05,13.14-23.02,24.47-30.75c0.48,0.3,0.95,0.6,1.43,0.9c0.63,0.98,0.86,2.05,0.68,3.19c-0.79,4.55-5.13,6.02-8.06,8.37
			c-6.74,5.42-11.75,11.6-12.43,20.41c-0.54,7.02-4.61,10.7-10.96,9.91c-5.73-0.71-9.8-4.69-10.78-11.17
			c-3-19.68-3.26-39.15,3.08-58.33c0.61-1.85,0.2-3.96,0.22-5.77c0,0.17,0-0.49,0-0.46c0.78,5.85-1.98,10.92-3.3,16.33
			c-2.51,10.3-2.57,20.87-2.89,31.45c-0.21,6.78,1.38,14.85-6.84,19.02C588.96,1238.32,588.23,1237.77,587.73,1236.9z"/>
		<path class="st14" d="M1974.65,1265.69c3.69-8.38,3.68-18.2,5.88-27.47c3.33-14.07,3.29-28.32,4.62-42.47
			c1.35-14.41,7.52-26.56,15-38.37c0.76-1.2,1.77-2.18,3.19-1.43c0.76,0.4,1.4,1.41,1.68,2.27c0.62,1.96,0.39,4.02-0.44,5.85
			c-2.97,6.6-2.83,13.6-2.67,20.57c0.27,11.7-1.44,23.18-3.52,34.62c-1.13,6.21-1.77,12.49-2.73,18.7
			c-1.78,11.47-4.82,22.65-12.55,31.88c-1.48,1.77-2.85,4.18-5.59,3.21C1974.46,1271.96,1974.39,1269.1,1974.65,1265.69z"/>
		<path class="st15" d="M825.83,1239.32c-2.07,20.54-10.9,37.28-28.53,48.8c-5.75,3.75-10.77,3.35-15.68-0.49
			c-6.68-5.22-9.11-10.75-6.1-17.24c2.92-6.31,4.98-12.95,8.13-19.22c3.48-6.94,3.65-15.3,8.06-22.18
			c2.67-4.16,4.34-8.94,6.73-13.29c2.49-4.54,6.49-5.94,10.87-3.02C818.7,1218.94,826.75,1226.35,825.83,1239.32z"/>
		<path class="st15" d="M1532.01,1202.9c8.1,4.28,10.66,11.69,9.82,19.97c-1.78,17.51-6.57,34.1-17.76,48.24
			c-1.25-0.18-2.73-0.77-3.7-0.24c-1.38,0.76-2.68,1.74-4.07,2.54c1.35,0.37,3.08-0.19,3.85,1.59c-2.06,5.9-6.45,8.96-12.33,10.42
			c-3.53,0.88-7,2.03-10.44,3.23c-2.51,0.87-5.47,2.57-7.1-0.45c-1.86-3.44,1.79-4.1,3.88-5.56c11.7-8.17,23.57-16.17,31.7-28.33
			c0.54-0.8,0.9-1.73,1.5-2.91c-2.91-3.34-6.77-1.89-10.16-2.1c-11.81-0.75-16.26-7.32-13.29-18.71c2.65-10.17,7.25-19.22,14-27.12
			c4.77-5.58,7.68-5.44,14.11-0.53c-8.9,5.38-14.37,13.6-17.77,23.03c-2.03,5.65-2.91,12.14,4.82,14.9
			c6.16,2.2,10.28-1.64,12.17-10.39c1.43-6.6,2.01-13.12-1.25-19.31C1528.13,1207.61,1528.35,1204.92,1532.01,1202.9z"/>
		<path class="st16" d="M1657.6,1116.93c0,3.81-7.72,15.55-11.15,16.88c-2.98,1.16-5.93,0.94-8.63-0.72
			c-2.55-1.57-4.97-3.34-7.42-5.05c-4.03-2.83-4.62-6.51-1.85-10.35c3.89-5.4,7.77-10.78,11.02-16.61c1.31-2.35,3.64-2.64,6.12-1.66
			C1650.93,1101.51,1657.6,1111.28,1657.6,1116.93z"/>
		<path class="st17" d="M1347.89,1280.98c0.05,1.31,0.09,2.62,0.14,3.93c2.12,2.26,2.48,5.4,3.93,7.99
			c4.59,9.05,13.4,12.35,21.92,16.04c-0.53,2.19-2.32,3.41-3.76,4.91c-14.59-0.17-27.32-12.01-28.19-23.81
			c1.49,6.21,2.58,15.14,4.14,23.94c2.22,12.5,15.2,22.44,28.98,23.7c18.36,1.69,33.74-5.44,47.99-16.05
			c3.26-2.42,5.56-7.19,10.97-4.97c0.73,0.63,1.35,1.36,1.85,2.18c-14.5,19.03-33.95,27.67-57.65,27.85
			c-18.28,0.14-40.43-14.07-42.51-38.19c-0.93-10.73-0.38-21.12,0.9-31.64c0.48-3.95,0.94-7.9,1.41-11.84
			c1.98-3.09,4.66-5.02,8.2-2.95c2.9,1.7,1.36,4.65,1.1,7.22C1346.91,1273.2,1346.15,1277.17,1347.89,1280.98z"/>
		<path class="st18" d="M1033.51,1268.46c1.76-4.07,5.28-6.78,7.86-10.21c3.34-4.46,2.64-6.19-2.71-7.32
			c-2.59-0.55-5.33-0.67-7.77-1.58c-7.97-2.98-11.14-10.15-9-18.31c2.32-8.84,6.84-16.54,11.84-23.94
			c7.5-11.09,17.37-10.71,24.45,0.55c5.04,8.01,5.97,16,3.39,25.56c-3.5,12.96-8,25.27-15.13,36.55
			c-4.07,6.44-8.67,12.64-16.54,15.08c-0.64-0.64-1.13-1.38-1.51-2.21c1.36-6.23,7.61-8.43,10.79-13.14
			c-1.21,0.9-2.51,1.76-4.21,1.16C1034.12,1270.13,1033.62,1269.43,1033.51,1268.46z"/>
		<path class="st19" d="M445.96,1298.95c16.19,3.59,32.24,3.97,48.03-1.99c3.78,6.07-0.26,9.47-5.03,9.98
			c-15.53,1.68-31.51,3.08-46.63-0.45c-10.48-2.45-17.86-11.19-18.45-23.36c0.4,7.39,1.92,14.66,3.26,21.95
			c2.4,13.04,9.62,19.31,23,20.86c13.4,1.54,25.74-0.86,37.07-8.45c3.28-2.2,6.91-6.15,11.35-1.48c0.33,1.07,0.13,2.02-0.59,2.86
			c-9.09,9.26-20.02,14.92-32.85,17.05c-11.36,1.89-35.79-2.18-42.09-15.92c-5.62-12.27-10.39-25.17-5.07-39.1
			c2.2-5.12,0.63-10.48,0.96-15.71c0.26-3.99,1.16-7.95,5.66-7.86c4.27,0.09,4.31,4.32,4.38,7.68c0.18,7.85-0.62,15.51,4.58,22.81
			C437.03,1292.71,441.91,1295.18,445.96,1298.95L445.96,1298.95z"/>
		<path class="st20" d="M1183.95,1163c-0.68-0.02-1.36-0.03-2.05-0.05c-0.05-6.47,5.16-10.6,7.26-16.12c0.47-1.24,1.87-2,3.31-1.63
			c1.87,0.47,2.46,2.05,2.62,3.79c0.06,0.65,0.06,1.39-0.19,1.96c-5.17,11.68-1.56,24.39-4.29,36.35c-0.36,1.58-0.42,3.31,1.89,4.78
			c5.82-3.17,10.96-7.69,15.87-12.51c23.92-23.47,47.81-46.97,71.74-70.43c3.06-3,5.82-6.43,10.04-8.01
			c-1.28,1.91-2.31,4.08-3.89,5.69c-15.54,15.82-30.8,31.93-47.23,46.87c-10.77,9.8-20.87,20.34-31.31,30.5
			c-3.8,3.69-7.74,7.24-11.62,10.85c-9.5,1.68-9.53,1.65-8.08-10c-3.85-3.93-1.77-8.76-1.8-13.18
			C1186.19,1168.62,1187.17,1165.36,1183.95,1163z"/>
		<path class="st21" d="M700.12,1183.17c-10.43,11.58-20.75,23.26-31.33,34.7c-5.93,6.42-12.93,8.9-21.54,4.91
			c-6.44-2.98-11.74,0.34-16.22,4.52c-4.5,4.2-3.03,9.26,2.87,11.41c10.98,4,11.87,5.88,7.48,16.42c-2.29,5.5-4.85,10.85-7.67,16.14
			c-3.77,7.07-10.13,10.36-16.55,13.69c-5.34,2.77-10.48,1.15-14.62-2.88c-6.11-5.94-10.56-12.77-10.5-21.78
			c0.02-3.65-0.3-7.3-0.46-10.94c0.21-0.42,0.42-0.84,0.62-1.27c5.43-1.9,6.03,2.67,7.38,5.77c2.37,5.47,4.05,11.25,7.26,16.35
			c6.23,7.08,7.42,7.06,14.9-0.39c3.17-5.9,8.68-10.5,9.53-17.54c-0.69-0.48-1.02-1.08-1.34-1.73c-7.33-6.89-9.33-15.44-5.52-24.3
			c4.05-9.41,15.25-14.15,26.43-12.26c10.07,1.71,16.37-4.03,22.44-10.53c1-1.02,1.99-2.03,2.96-3.08
			c4.38-5.32,9.51-9.92,14.12-15.03c2.09-2.31,4.05-5.43,8.09-4.47C699.33,1181.4,699.87,1182.18,700.12,1183.17z"/>
		<path class="st22" d="M523.84,1188.83c-1.35-0.01-2.71-0.03-4.06-0.04c-0.53-0.72-0.87-1.52-0.97-2.41
			c0.26-1.37,1.09-2.37,2.06-3.3c1.96-1.82,3.67-3.86,5.27-6c0.57-0.7,1.1-1.44,1.58-2.21c0.41-0.82,0.88-1.6,1.42-2.34
			c0.6-0.7,1.25-1.35,1.94-1.96c1.81-1.52,4.02-2.21,6.19-2.98c5.08-2.39,10.43-4.05,14.33-5.44c-3.94,1.99-9.17,2.38-14.08-1.36
			c-5.92-4.5-12.53-5.24-19.59-3.98c-0.77-0.54-1.45-1.18-2.05-1.91c3.98-11.97,11.88-20.84,22.07-27.9
			c0.39,0.38,0.71,0.82,0.94,1.32c0.33,0.48,0.72,0.9,1.19,1.29c0.04,0.01,0.93,0.25,0.97,0.25c0.83,0.05,1.61-0.04,2.27-0.24
			c-0.11,0.03,0.34-0.12,0.28-0.11s-0.44,0.04-0.54,0.09c-0.1,0.04-0.67,0.11-0.75,0.15c-2.31,0.35-3.18-1.41-4.34-2.74
			c7.01-6.8,12.64-7.64,17.95-2.63c2.55,2.41,4.33,5.25,2.79,8.84c-1.38,3.22-4.43,4.02-7.52,3.59c-5.78-0.8-11.16-0.76-15.91,3.44
			c-4.68,4.13-4.74,6.63,0.42,9.96c7.82,5.05,15.74,6.8,24.12,0.98c3.25-2.26,6.85-4.05,10.39-5.87c1.53-0.78,3.3-0.71,4.47,0.85
			c0.86,1.15,0.72,2.59,0.11,3.79c-2.3,4.54-5.73,8.05-10.03,10.79c-8.95,5.69-17.87,11.42-26.74,17.23
			C533,1181.24,527.62,1184,523.84,1188.83z"/>
		<path class="st23" d="M1439.95,1027.09c-14.15-3.87-23.14-12.72-25.08-27.46c-1.18-8.93-0.11-17.92,4.02-26.1
			c2.02-3.99,3.13-7.97,3.08-12.36c1.98-3.32,3.07-10.16,7.93-1.99c0.03,5.98-0.18,11.81-2.13,17.67
			c-3.45,10.37,3.99,20.96,15,22.12c12.58,1.32,24.55-0.11,35.06-7.96c0.94,0.26,1.73,0.77,2.34,1.51
			c-1.62,8.33-9.38,14.67-20,15.34c-11.45,0.72-23.04,1.41-34.47-5.65c1.62,7.59,6.15,10.7,10.98,13.67
			c3.3,2.03,7.54,3.73,5.18,9.07C1441.25,1025.71,1440.62,1026.41,1439.95,1027.09z"/>
		<path class="st24" d="M1229.88,947.23c6.81,1.95,9.23,7.09,9.72,13.53c0.49,6.4-0.5,12.73-2.76,18.61
			c-6.42,16.7-15.41,31.63-30.91,41.68c-0.65-0.64-1.28-1.3-1.87-1.99c-2.47-6.9,3.99-8.92,7.04-12.79
			c2.01-2.55,7.16-3.48,4.18-8.47c-0.55-0.74-0.81-1.57-0.82-2.48c0.32-0.85,0.81-1.58,1.47-2.2c4.92-3.03,7.71-8.18,11.9-11.94
			c3.63-3.26,2.73-6.35-0.52-9.25c-2.29-2.04-5.13-3.06-7.95-3.99c-5.85-1.94-8.66-6.25-8.59-12.05
			c0.13-10.06,1.24-19.96,9.69-27.14c1.26-1.07,2.39-2.3,3.58-3.45c1.17,0.21,2.27,0.58,3.07,1.53c0.36,0.68,0.54,1.41,0.53,2.17
			c0.13,0.73,0.24,1.47,0.33,2.22c-3.07,4.15-7.02,8.03-4.03,13.93c-0.25,2.87-3.23,3.83-4.27,6.13c-0.27,3.96,1.67,6.53,5.08,8.14
			c0.99,0.25,1.97,0.48,2.93,0.35c-0.08-0.1,0.67-0.31,0.57-0.4s0.42-0.51,0.33-0.56c-0.09-0.05,0.2-0.61,0.12-0.65
			c-0.1-0.5-0.13-0.96-0.23-1.44c-0.22-0.54-0.39-1.05-0.59-1.57c-0.29-0.56-0.5-1.13-0.66-1.72c-0.11-0.66-0.05-1.3,0.17-1.93
			c0.1-0.67,0.28-1.31,0.54-1.92c0.18-0.29,0.36-0.57,0.54-0.85C1228.95,948.21,1229.41,947.71,1229.88,947.23z"/>
		<path class="st25" d="M878.06,1234.69c-0.02,0.74-0.05,1.48-0.07,2.22c-9.11-7.79-9.18-8.69-4.91-19.35
			c3.11-7.76,6.31-15.36,12.56-21.22c5.17-4.85,7.16-5.03,13.15-1.52c10.19,5.97,13.18,15.71,12.56,26.39
			c-1.14,19.76-8.66,37.31-20.87,52.82c-6.43,8.17-14.84,13.27-25.33,14.24c-7.52,0.7-14.63-0.38-19.65-6.98
			c0.14-0.44,0.29-0.88,0.43-1.32c3.51-3.57,7.53-1.23,11.32-0.88c12.88,1.17,20.57-2.73,26.21-13.5
			c4.95-6.92,11.65-12.35,16.11-19.82c2.38-3.98,3.92-7.11,2.51-11.72c-1.03-3.38-0.5-7.04,0.11-10.61
			c0.75-4.33,0.39-8.66-1.51-12.71c-3.61-7.66-9.61-8.23-14.19-1.09c-3.59,5.6-6.85,11.54-6.57,18.54
			C880.03,1230.65,879.54,1232.76,878.06,1234.69z"/>
		<path class="st26" d="M1439.95,1027.09c0.05-0.8,0.1-1.61,0.14-2.41c3.21-5.63,8.84-7.69,14.49-9.5c9.37-3,16-9.55,22.79-16.21
			c2.36-2.32,1.62-3.58,0.67-5.56c-0.07-0.8-0.14-1.59-0.22-2.39c0,0,0.09,0.08,0.09,0.08c0.81-0.53,1.34-1.33,2.01-2l-0.01,0.01
			c0.74-0.62,1.34-1.37,2.01-2.06c0.43-0.5,0.84-1.03,1.3-1.5c8-8.16,7.21-12.55-3.56-17.32c-4.41-1.95-8.43-3.93-9.86-8.96
			c-1.31-3.4-1.41-6.8,0.06-10.18c0.02-0.64,0.05-1.28,0.09-1.92c1.35-2.27,3.35-4.02,4.97-6.06c4.61-5.83,7.18-3.78,8.99,2.06
			c14.04,7.77,16.11,12.53,12.37,28.06c-3.27,13.59-7.43,26.76-16.71,37.7c-2.17,2.55-4.13,5.2-7.5,6.25
			c-0.72,0.57-1.41,1.18-2.08,1.82c-0.72,0.72-1.45,1.45-2.17,2.17c-0.59,0.64-1.21,1.26-1.85,1.85c-0.65,0.06-1.3,0.11-1.95,0.15
			c-1.1,1.16-2.96,0.66-4.04,1.85c-0.66,0.05-1.33,0.09-1.99,0.13c-1.09,1.19-2.99,0.73-4.04,2l0.01,0
			c-1.08,1.16-2.93,0.71-3.99,1.91C1446.63,1027.06,1443.29,1027.07,1439.95,1027.09z"/>
		<path class="st16" d="M921.88,1276.82c8.5-8.84,19.78-14.87,26.21-25.81c3.64-4.79,6.52-9.89,6.97-16.08
			c0.13-1.78,0.99-3.21,3.06-3.13c1.92,0.08,3.13,1.2,2.94,3.15c-0.41,4.28,1.14,8.93-0.94,12.79c-4.49,8.34-5.22,18.33-11.36,25.85
			c-4.46,5.46-10.87,7.99-17.29,10.19c-1.79,0.61-3.86,0.83-5.81,1.21c-2.96,0.57-6.71,3.93-8.69-0.55
			C915.25,1280.54,919.51,1278.94,921.88,1276.82z"/>
		<path class="st27" d="M1367.95,1308.9c1.97,0.01,3.94,0.03,5.91,0.04c0,0,0.08,0,0.08,0c0.64,0.69,1.35,1.3,2.06,1.92l-0.03-0.06
			c10.14,1.64,20.25,2.77,29.96-2c7.27-2.38,14.33-5.16,20.84-9.31c15.72-10.02,26.78-23.47,31.67-41.69
			c1.53-5.69,6.22-10.38,5.37-16.84c0.35-0.31,0.7-0.62,1.05-0.93c0.92-0.32,1.81-0.26,2.69,0.13c1.41,1.33,2.04,3.08,2.6,4.87
			c-2.38,5.14-3.35,10.57-4.43,16.13c-2.29,11.71-7.22,22.67-13.1,33.06c-4.89,8.65-10.15,17.11-16.76,24.61
			c-0.78-0.07-1.56-0.13-2.34-0.2c-4.93-2.86-2.38-5.95-0.29-9.05c4.94-7.32,10.47-14.21,15.94-21.12c0.86-1.02,0.6,1.48-0.01,0.3
			c-0.19-0.36-0.52-0.27-0.93,0.33c-17.05,24.96-41.68,32.74-70.4,30.38C1372.48,1319.05,1364.93,1318.25,1367.95,1308.9z"/>
		<path class="st24" d="M1374.3,972.62c0.1-0.83,0.01-1.9,0.36-2.8c4.49-11.53,3.24-23.62,3.4-35.54c0.13-9.91,2.89-19,7.81-27.51
			c1-1.72,1.91-3.81,4.38-3.34c2.89,0.55,3.49,3.12,3.3,5.42c-0.55,6.62-1.45,13.21-2.21,19.82c-0.38,3.3-1.28,6.64-1.06,9.91
			c0.85,12.96-1.8,24.99-8.45,36.18c-1.19,1.99-1.66,4.82-4.72,3.9C1374.44,977.84,1374.45,975.13,1374.3,972.62z"/>
		<path class="st28" d="M1677.9,895.14c-2.09,3.09-3.46,6.33-2.02,10.12c-0.76,1.21-1.66,2.27-3.03,2.83
			c-0.8,0.54-1.68,0.84-2.59,1.03c-0.79,0.24-1.64,0.32-2.42,0.49c-5.32,3.69-7.61,11.61-15.75,11.38c-0.88-0.34-1.57-0.9-2.07-1.7
			c6.65-10.12,10.97-21.78,21.14-29.6c3.64-2.8,8.25-4.05,11.96-7.93c-3.67-4.1-8.06-2.11-11.96-2.24c-1.93-0.06-4.17,0.69-5.31-1.5
			c-1.08-2.07,0.38-3.78,1.4-5.45c2.04-3.33,5.24-4.84,8.87-5.87c9.68-2.76,19.11-0.16,28.48,1.52c4.68,0.84,5.91,5.58,3.17,10.45
			c-3.45,6.14-8.89,9.63-15.98,10.39c-0.63-0.7-1.01-1.52-1.11-2.44c1.68-3.58,6.16-5.29,6.56-9.72c-1.54-4.24-5.66-3.55-8.15-4.51
			c0.46,0.08,1.51,0.56,2.49,1.24c3.36,2.91,4.37,6.16,1.46,9.96c-0.81,0.45-1.51,1.04-2.08,1.77c-0.12,0.44-0.24,0.88-0.36,1.31
			c0.17,0.9,0.57,1.69,1.2,2.37c-4.16,3.1-8.28,6.31-13.89,6.11L1677.9,895.14z"/>
		<path class="st8" d="M1153.47,1219.59c-0.05,0.66,0.05,1.38-0.17,1.98c-5.82,15.75-7.24,32.83-15.6,47.94
			c-3.99,7.2-10.06,10.4-16.48,13.5c-5.03,2.43-10.71,3.53-16.13,5.1c-1.58,0.46-3.44,0.69-4.6-0.88c-1.48-1.99-0.34-3.87,0.96-5.37
			c1.73-1.99,3.65-3.85,5.65-5.57c5.54-4.78,11.29-9.31,16.71-14.2c8.02-7.25,14.41-15.51,16.48-26.6
			c1.21-6.46,6.34-11.68,6.33-18.7c0-1.96,1.18-4.12,3.71-3.75c2.35,0.34,2.76,2.55,3.05,4.57
			C1153.46,1218.26,1153.44,1218.93,1153.47,1219.59z"/>
		<path class="st29" d="M2131.98,1202.94c-5.12-1.97-8.92-0.43-12.03,4.03c-5.88,8.44-12.5,16.38-12.88,27.51
			c-0.29,8.36,2.07,11.56,10.56,12.22c1.66,0.13,3.33,0.08,4.99,0.07c11.64-0.08,11.72-0.66,13.66-12.06
			c1.6-9.39,0.91-18.53-0.32-27.77c6.23,5.91,6.52,13.45,5.45,21.16c-0.68,4.9-1.4,9.95-3.19,14.51
			c-4.42,11.26-7.43,23.29-16.1,32.46c-0.75,0.53-1.58,0.89-2.48,1.09c-2.74-1.42-6.68,0.67-8.69-2.93
			c-0.11-0.97,0.15-1.83,0.77-2.59c5.35-6.24,12.11-11.35,15.61-19.08c-2.25-3.4-5.51-2.17-8.32-2.3
			c-13.99-0.62-18.08-6.66-14.57-19.97c2.62-9.95,7.6-18.38,14.29-25.84C2123.47,1198.15,2125.93,1198.37,2131.98,1202.94z"/>
		<path class="st30" d="M975.93,993.09c2.76-4.13,5.28-8.43,8.32-12.34c6.98-8.97,10.8-18.77,9.75-30.34
			c-0.98-10.85,0.74-21.13,7.89-29.93c1.25-1.54,2.26-3.66,4.6-3c2.73,0.77,3.55,3.53,2.72,5.63c-4.29,10.82-2.64,22.21-3.75,33.33
			c-0.16,1.6-0.98,3.14-1.5,4.71c-1.72-1.06-2.89-2.47-2.91-4.6c-0.14-2.22,0-4.47-0.65-6.94c-1.43,1.41-0.49,2.84-0.52,4.13
			c0.61,2.88,1.23,5.74,4.07,7.4c-6.13,13.28-7.24,28.79-17.86,40.07c-0.88-0.16-1.65-0.53-2.3-1.14c-1.08-1.63-0.57-4.74-4-4.2
			c-0.91,0.02-1.73-0.16-2.54-0.52C976.53,994.76,976.1,994,975.93,993.09z"/>
		<path class="st31" d="M893.89,1106.96c2.72-3.51,5.43-3.5,8.16-0.01c0.5,0.86,1.08,1.68,1.6,2.53c2.48,4.08,9.42,6.08,7.65,11.86
			c-2.02,6.6-5.94,12.81-11.59,17.03c-7.82,5.85-12.71-2.03-18.3-5.18c-5.93-3.34,0.39-5.91,1.34-8.71
			C885.02,1117.77,890.32,1112.9,893.89,1106.96z"/>
		<path class="st25" d="M1950,1239.02c0.77-14.51,7.77-31.39,15.68-36.27c-1.5,11.13-0.48,21.6-4.39,32.24
			c-3.13,8.54-4.56,17.92-7.58,26.72c-3.38,9.85-8.72,17.84-19.08,21.49c-6.27,2.2-12.45,4.65-18.75,6.74
			c-1.82,0.6-3.98,0.7-5.88,0.41c-4.19-0.64-5.58-3.9-2.78-7.22c4.53-5.38,10.05-9.63,16.76-12.13c0.8,0.51,1.43,1.19,1.87,2.03
			c0.63,2.53-0.84,4.21-2.38,5.87c1.96-0.8,4-1.41,5.95-2.24c13.87-5.92,18.75-18.46,23.18-31.31c0.22-1.11,0.26-2.24,0.04-3.35
			c-0.3-0.6-0.7-1.14-1.2-1.6C1950.96,1239.94,1950.48,1239.48,1950,1239.02z"/>
		<path class="st27" d="M921.88,1276.82c-2.43,6.78-2.08,7.59,3.62,6.65c14.16-2.35,24.56-9.42,28.52-23.92
			c1.05-3.87,2.43-7.55,4.05-11.2c1.75-3.94,2.9-7.98,0.14-13.19c-4.43,5.24-4.1,12.75-10.12,15.85c4.34-8.6,5.36-18.44,10.17-26.93
			c1.38-2.44,1.18-5.8,1.59-8.75c0.37-2.65,0.73-5.3,2.21-7.6c1.08-1.68,2.31-3.57,4.68-2.74c1.92,0.67,1.68,2.64,1.61,4.28
			c-0.31,7.61-0.48,15.04-3.5,22.46c-3.72,9.14-4.42,19.23-7.89,28.66c-4.87,13.26-12.87,22.08-26.86,25.22
			c-3.22,0.72-6.3,2.09-9.39,3.29c-2.88,1.11-6.18,2.49-8.22-0.48c-2.57-3.75,1.18-5.95,3.36-8.27
			C917.46,1278.41,919.54,1277.34,921.88,1276.82z"/>
		<path class="st31" d="M1088.32,1043.41c-0.83-0.21-1.66-0.16-2.08-0.56c-5.51-5.23-10.63-5.13-16.54-0.12
			c-3.25,2.76-6.9,0.54-9.71-2.29c-2.98-3-3.8-6.11-1-9.73c1.21-1.57,2.11-3.39,3.24-5.02c3.26-4.68,5.31-4.98,9.58-1.29
			c1.25,1.08,2.18,2.51,3.31,3.73c2.35,2.52,4.69,1.99,6.93-0.15c0.96-0.92,1.78-1.97,2.68-2.95c5.19-5.63,7.86-5.39,12.14,0.8
			c2.41,3.49,2.46,6.93-0.03,10.15C1094.51,1039.01,1092.98,1043.21,1088.32,1043.41z"/>
		<path class="st32" d="M731.9,1244.9c4.37-18.19,6.28-36.66,6.03-55.34c-0.12-8.69,4.99-15.71,7.19-23.66
			c0.36-1.29,1.59-2.16,3.02-2.23c2.07-0.09,2.95,1.44,3.27,3.1c0.37,1.94,0.45,3.96,0.47,5.94c0.11,9.33-0.61,18.58-2.33,27.77
			c-1.16,6.2-2.68,12.44-2.89,18.7c-0.35,10.43-1.95,20.41-6.66,29.79c-0.95,0.83-1.92,0.86-2.92,0.1
			c-0.16-0.28-0.53-0.64-0.46-0.85c7.1-21.68,4.12-44.72,8.73-66.73c-1.67,9.85-3.33,19.7-3.39,29.73
			c-0.07,10.73,0.21,21.46-5.12,31.37c-2.16,4.01-0.2,7.66,1.84,11.16c-0.61,2.32-1.59,4.38-4.46,3.84
			c-2.18-0.41-3.04-2.38-3.12-4.3C731.01,1250.49,730.26,1247.56,731.9,1244.9z"/>
		<path class="st33" d="M700.12,1183.17c-0.75-0.1-1.5-0.21-2.25-0.31c-0.86-0.94-1.72-1.89-2.12-3.13
			c-0.41-0.74-0.61-1.54-0.67-2.36c0.03-0.73,0.26-1.43,0.62-2.03c0.27-0.39,0.67-0.77,1.01-1.05c-0.1,0.05,0.38-0.34,0.27-0.28
			c-0.1,0.06,0.15-0.22,0.04-0.15c-0.11,0.06-0.1-0.09-0.24-0.04s-0.41-0.04-0.56-0.01c-0.15,0.03-0.71-0.06-0.82-0.04
			c-8.91-4.58-18.66-5.2-28.23-6.58c1.79,0.27,3.55,0.71,5.35,0.94c7.29,1.19,15.53,0.47,19.12,9.29c0.21,1.08,0.17,2.19-0.04,3.28
			c-0.45,6.7-5.82,10.2-9.65,14.69c-0.84,1.2-1.76,2.33-2.85,3.31c-1.08,0.92-2.31,1.64-3.45,2.48c-1.15,0.8-2.35,1.52-3.79,1.65
			c-0.94-0.17-1.71-0.64-2.33-1.35c-0.35-0.91-0.27-1.77,0.32-2.56c3.4-3.18,6.98-6.19,10.15-9.58c4.62-4.94,3.61-9.35-2.97-11.09
			c-7.32-1.94-14.88-4.21-22.32,0.23c-1.95,1.16-4.44,2.46-6.45,0.37c-2.38-2.47-0.66-5.09,0.8-7.24c2.43-3.57,5.25-6.85,8.66-9.61
			c4.8-3.89,9.87-4.99,15.84-2.83c9.12,3.3,18.34,5.57,28.33,4.23c6.73-0.91,9.72,4.01,6.85,10.24
			C706.9,1177.65,703.56,1180.5,700.12,1183.17z"/>
		<path class="st34" d="M1157.9,1009.15c-2.85-14.1-3.7-27.68,3.1-41.47c5.22-10.6,9.71-21.63,14.93-32.29
			c1.01-2.07,1.91-4.88,4.82-3.79c3.27,1.23,2.88,4.4,1.57,6.76c-2.44,4.37-3.74,9.2-5.92,13.62c-5.21,10.52-7.38,21.73-8.53,33.24
			c-0.61,0.61-1.24,1.2-1.88,1.78c-3,1.78-2.61,4.5-2.8,7.54C1162.88,999.77,1162.89,1005.47,1157.9,1009.15z"/>
		<path class="st35" d="M975.93,993.09c0.69,0.02,1.39,0.05,2.08,0.07c0.95,1.04,1.7,2.18,1.75,3.65c0.11,0.93,0,1.84-0.32,2.72
			c-0.62,0.68-1.28,1.32-1.88,2.01c-0.7,0.57-1.41,1.14-1.92,1.9c-0.67,0.54-1.39,1.08-1.93,1.85
			c-22.38,10.37-41.06,8.81-54.92-4.35c-1.22,5.27,5.61,9.9,1.44,15.64c-0.82,0.53-1.72,0.85-2.69,0.93
			c-5.63-4.55-7.35-10.64-7.55-17.65c-0.25-8.71,1.53-17.17,2.4-25.75c0.19-1.92,0.66-4.3,3.27-4.18c2.45,0.11,2.97,2.49,3.32,4.37
			c0.6,3.25,0.95,6.57,1.17,9.87c0.31,4.53,1.63,8.75,5.42,11.29c8.62,5.76,17.52,10.76,28.63,6.83
			C961.63,999.67,969.92,999.1,975.93,993.09z"/>
		<path class="st4" d="M1851.94,1268.97c-4.54,7.14-12.79,7.94-19.58,10.88c-10.98,4.75-22.8,7.29-34.59,9.13
			c-23.64,3.7-47.51,5.52-71.36,3.43c-8.69-0.76-17.13-4.71-25.58-7.49c-1.33-0.44-2.17-2.4-3.23-3.66c0,0,0.41-0.41,0.41-0.41
			c7.37-5.72,15.84-3.63,22.73-0.74c15.54,6.53,31.66,5.99,46.94,3.05c18.07-3.47,36.72-4.31,54.27-10.84
			c6.41-2.38,12.26-6.88,19.62-6.46c1.08-0.2,2.17-0.37,3.25-0.55C1847.83,1265.28,1849.69,1267.5,1851.94,1268.97z"/>
		<path class="st36" d="M1575.93,1254.94c0.06-0.75,0.13-1.5,0.19-2.25c3.96,0.52,7.92,1.03,11.87,1.57
			c3.02,0.41,5.99,0.23,8.85-0.89c2.28-0.89,4.18-2.23,4.23-4.98c0.04-2.25-1.35-3.67-3.24-4.62c-1.19-0.59-2.5-0.96-3.66-1.6
			c-3.82-2.1-4.15-5.16-1.55-8.26c11-13.13,27.63-15.43,39.19-3.59c1.75,1.79,2.35,5.12,5.94,4.43c0.55-0.61,1.24-0.84,2.05-0.68
			c0.65,0.51,0.94,1.17,0.88,1.99c-0.27,0.28-0.53,0.57-0.8,0.85c-1.29,1.37-2.58,2.74-3.87,4.11c-0.06,1.2-0.08,2.4-0.09,3.6
			c-0.01,0.77-0.05,1.54-0.13,2.3c-0.19,0.76-0.5,1.46-0.96,2.12c-0.22,0.35-0.42,0.69-0.64,1.05c-0.42,1.31-1.06,2.42-2.33,3.1
			c-0.97,0.39-1.95,0.57-3,0.56c-7.02-1.15-7.84-6.88-9.15-12.24c0.16-4.61,1.37-10.12-6.06-9.79c-4.34,0.19-6.68,2.78-5.78,7.42
			c0.38,1.96,1.16,3.83,1.62,5.77c2.03,8.63-2.04,15.14-11.21,18.04C1588.15,1266.17,1579.54,1263.09,1575.93,1254.94z"/>
		<path class="st24" d="M1272.41,949.22c-2.21-14.94,2.02-27.94,5.66-41.03c0.61-2.18,1.08-4.98,4.21-4.55
			c2.86,0.39,3.03,3.11,3.44,5.38c0.12,0.65,0.24,1.33,0.19,1.97c-1.52,18.07-0.52,36.41-5.78,54.08c-0.28,0.95-0.49,1.94-0.92,2.83
			c-0.75,1.53-1.78,2.91-3.76,2.6c-1.9-0.29-2.94-1.78-2.98-3.47C1272.32,960.75,1272.41,954.47,1272.41,949.22z"/>
		<path class="st37" d="M1279.95,1242.95c-0.22,0.63-0.35,1.3-0.66,1.88c-4.8,8.99-3.87,16.66,3.44,24.45
			c7.64,8.15,6.23,18.74-2.02,25.4c-6.18,4.99-11.44,4.22-15.99-2.32c-4.24-6.08-5.82-12.56-3.37-19.82
			c1.05-3.13,2.15-6.38,2.39-9.64c0.57-7.61,3.33-14.17,8.19-19.94c0.65-0.55,1.36-1.03,2.12-1.42c1.26-0.32,2.53-0.31,3.79,0
			C1278.6,1241.92,1279.3,1242.39,1279.95,1242.95z"/>
		<path class="st38" d="M1034.03,925.79c-0.08,7.69-0.83,15.24-3.72,22.45c-1.76,4.38-2.1,9-2.5,13.64
			c-0.17,1.96-0.58,3.93-1.16,5.81c-0.52,1.68-1.76,2.88-3.69,2.54c-1.48-0.26-2.09-1.59-2.36-2.9c-0.88-4.29-0.9-8.69,0.47-12.8
			c3.5-10.54,4.1-21.42,4.57-32.36c0.1-2.31,0.35-4.64,0.81-6.9c0.41-1.97,1.26-4.02,3.8-3.76c2.42,0.25,3.07,2.38,3.27,4.36
			C1033.84,919.16,1033.87,922.48,1034.03,925.79z"/>
		<path class="st39" d="M1347.89,1280.98c-1.74-3.69-1.5-7.73-2.05-11.63c-0.68-4.84-3.53-5.93-7.83-4.33
			c4.1-9.39,6.4-19.46,11.05-28.68c2.13-4.22,4.91-7.85,7.69-11.55c1.04-1.39,2.49-2.4,4.28-1.46c1.7,0.9,2.23,2.75,1.44,4.27
			c-6.05,11.62-7.31,24.71-11.6,36.85C1348.95,1269.87,1347.84,1275.28,1347.89,1280.98z"/>
		<path class="st40" d="M1782.39,1166.63c2.39,2.69,4.86,2.82,7.41,0.24c2.11,1.52,4.13,3.01,5.34,5.53
			c1.41,2.93,3.79,4.85,7.08,2.54c2.63-1.84,3.95-4.73,2.25-7.7c-1.86-3.25-4.63-1.54-6.77-0.1c-2.81,1.88-5.33,2.33-7.9-0.23
			c1.33-4.54,4.02-8.39,6.72-12.12c2.82-3.91,6.61-4.28,10.43-1.41c5.32,4,8.64,9.15,7.97,16.18c-0.74,7.75-4.43,13.86-10.79,18.18
			c-2.61,1.77-5.77,1.37-8.55-0.21c-1.43-0.82-2.67-1.98-4.09-2.83c-7.08-4.25-9.98-3.92-15.74,1.82c-1.41,1.4-2.66,2.96-3.99,4.45
			c-0.87,0.67-1.84,0.87-2.9,0.59c-4.29-2.92-2.49-6.02-0.22-9.08c3.67-4.95,6.71-10.35,10.9-14.91
			C1780.4,1167,1781.35,1166.68,1782.39,1166.63z"/>
		<path class="st41" d="M1639.7,1234.81c-0.65-0.01-1.29-0.02-1.94-0.04c2.87-6.81,4.59-13.82,4.27-21.3
			c-0.49-11.4,6.61-20.77,8.68-31.51c0.31-1.61,1.65-2.96,3.66-2.68c1.41,0.2,2.37,1.21,2.88,2.47c2.29,5.67,2.99,11.6,2.18,17.62
			c-1.92,14.22-4.89,28.12-12.89,40.44c-2.35,3.62-4.42,7.42-6.62,11.14c-0.48-4.59,1.66-8.33,3.97-12
			c-0.56-0.76-0.9-1.61-1.04-2.54c6.75-10.79,3.93-24.04,8.49-33c-1.27,5.11-3.45,12.34-3.89,20.05
			C1647.19,1228.34,1646.16,1233.69,1639.7,1234.81z"/>
		<path class="st42" d="M1227.99,931.22c-1.35-0.02-2.7-0.05-4.06-0.07c0,0,0.06,0.06,0.06,0.06c0.02-1.97,0.04-3.94,0.06-5.91
			c6.23-4.4,10.37-9.84,10.56-17.98c0.07-3.16,1.41-6.5,2.93-9.36c3.36-6.31,10.18-8.03,16.06-4.49c5.49,3.29,7.19,9.52,4.07,15.45
			c-2.36,4.5-6,7.77-10.35,10.39C1240.84,923.2,1233.91,926.39,1227.99,931.22z"/>
		<path class="st43" d="M2057.93,1248.95c6.04-10.33,9.71-21.54,11.91-33.21c1.11-5.87,2.05-11.46,10-13.92
			c-2.61,24.8-6.02,48.07-17.86,69.23c-0.83,0.53-1.73,0.77-2.71,0.69c-3.98-1.91-3.62-4.8-1.96-8.15
			c2.51-5.05,4.97-10.12,7.63-14.67c-2.51,0.71-2.16,8.57-7.87,4C2056.5,1251.4,2056.86,1250.1,2057.93,1248.95z"/>
		<path class="st44" d="M970.89,954.3c0.27,5.29-4.9,11.91-9.55,12.23c-4.92,0.34-10.93-4.82-11.02-9.46
			c-0.09-4.33,6.78-13.29,10.21-13.33C964.84,943.7,970.64,949.61,970.89,954.3z"/>
		<path class="st35" d="M2090.57,1144.37c-0.4,6.47-10.33,19.51-16.36,21.49c-2.65,0.87-5.28,0.77-7.73-0.54
			c-1.45-0.77-2.72-1.88-4.07-2.84c-10.76-7.57-11.12-8.66-4.23-19.5c3.02-4.74,6.68-9.08,10.17-13.52c2.19-2.79,4.97-4.27,8.72-3.3
			C2083.17,1127.74,2090.95,1138.14,2090.57,1144.37z"/>
		<path class="st33" d="M1470.15,1245.05c-1.81-0.91-3.27-2.19-4.25-3.98c4.55-6.99,0.6-14.77,2.33-22.03
			c-1.75,7.23,2.26,15-2.38,21.96c-0.68-0.01-1.36-0.02-2.04-0.02c-0.06-6.31-0.09-12.62-0.2-18.92c-0.12-7.67-0.17-15.18,4.6-21.98
			c1.58-2.25,1.42-5.7,2.09-8.6c0.46-1.97,1.02-4.14,3.47-4.2c3.13-0.08,3.72,2.53,3.8,4.85c0.1,2.96,0.29,6.15-0.62,8.88
			c-3.74,11.21-3.71,22.87-4.66,34.41C1472.02,1238.75,1471.73,1242.02,1470.15,1245.05z"/>
		<path class="st45" d="M1115.78,932.66c-2.11-10.36,4.41-18.42,7.43-27.4c0.24-0.72,1.45-1.4,2.31-1.57c1.53-0.3,2.4,0.87,3.01,2.1
			c0.92,1.87,1.13,3.94,0.57,5.85c-4.72,16.2-2.22,33.15-5.2,49.53c-1.4,2.26-2.96,4.46-6.05,3.79c-2.89-0.62-2.81-3.11-2.88-5.37
			c3.41-6.5,5.34-13.41,5.14-19.1c-1.1,5.37-1.1,5.37-5.13,2.9C1115.26,939.81,1114.21,936.14,1115.78,932.66z"/>
		<path class="st9" d="M445.96,1298.95c-12.47-4.61-17.6-14.16-18.15-26.84c-0.11-2.64-0.26-5.29-0.72-7.88
			c-0.29-1.61-1.2-3.2-3.26-3.11c-1.97,0.08-2.96,1.59-3.19,3.24c-0.61,4.25-0.88,8.54-1.43,12.8c-0.17,1.28-0.81,2.5-1.24,3.75
			c-2.21-13.63,3.28-25.84,7.19-38.32c1.2-3.85,4.28-6.6,6.79-9.64c2.17-1.68,4.12-1.72,5.72,0.77c0.14,0.43,0.28,0.87,0.42,1.3
			c-5.09,12.66-8.65,25.68-7.85,39.46c0.42,7.29,4.37,13.13,9.52,18.08C441.9,1294.62,444.38,1296.34,445.96,1298.95z"/>
		<path class="st46" d="M1099.19,933.17c-1.62,4.9-5.14,9.02-9.4,12.01c-5.94,4.18-12.49,7.45-15.91,14.38
			c-0.6,1.22-2.05,1.83-3.41,1.05c-1.69-0.98-2.1-2.95-1.19-4.29c5.13-7.49,7.88-16.87,17.1-21.18c2.92-1.36,5.22-4.04,8.11-5.51
			C1097.22,928.26,1098.82,929.87,1099.19,933.17z"/>
		<path class="st16" d="M1700.05,995.92c-0.34,5.02-1.87,8.89-6.01,11.23c-3.25,1.84-6.37,1.19-9.23-0.98
			c-3.72-2.82-4.44-6.34-1.98-10.32c1.21-1.95,2.84-3.64,4.04-5.6c1.65-2.67,3.43-5.01,7.04-4.07c3.22,0.84,4.81,3.3,5.61,6.32
			C1699.85,993.77,1699.92,995.1,1700.05,995.92z"/>
		<path class="st47" d="M1672.06,905.06c1.27,0.07,2.55,0.14,3.82,0.21c1.09,2.04,2.56,3.96,3.19,6.13c2,6.83-1.91,13.91-8.88,13.44
			c-12-0.81-19.78,5.99-28.14,12.37c-2.51,1.73-1.86,6.95-5.98,6.43c-3.61-0.46-2.74-4.52-3.68-7.06
			c4.71-7.43-2.17-11.86-4.54-17.46c3.63-2.6,6.69-1.35,9.94,1.05c5.87,4.32,5.96,4.19,12.23-0.87c0.68,0,1.37,0.01,2.05,0.01
			c11.25,0.65,14.22-1.44,17.17-11.97C1669.62,905.95,1670.69,905.28,1672.06,905.06z"/>
		<path class="st48" d="M1041.82,989.41c-2.94-0.91-3.75-2.75-2.15-4.6c2.15-2.47,4.64-4.83,7.42-6.52
			c5.37-3.27,10.82-6.38,15.51-10.64c1.54-1.4,3.41-2.37,5.27-0.72c1.72,1.53,1.57,3.76,0.6,5.51c-3.2,5.83-6.4,11.78-14.19,12.42
			c-3.34,0.27-6.5,0.97-9.23,3.19C1044.1,988.82,1042.7,989.06,1041.82,989.41z"/>
		<path class="st49" d="M2057.93,1248.95c-0.03,1.31-0.06,2.61-0.09,3.92c0.16,0.44,0.31,0.89,0.47,1.33
			c0.41,0.85,0.72,1.73,0.95,2.64c-0.05,0.46-0.11,0.93-0.16,1.39c-0.36,0.87-0.82,1.67-1.38,2.42c-6.01,7-12.79,13.16-20.47,18.64
			c3.92-0.51,7-3.59,11.04-2.6c1.23,0.84,2.56,1.57,3.42,2.85c0.1,0.5,0.2,0.99,0.3,1.49c-6.9,7.19-17.06,6.74-25.37,10.66
			c-1.42,0.67-3.93-0.37-5.69-1.17c-3.43-1.56-4.18-4.1-1.67-7.18c0.62-0.76,1.39-1.45,2.2-2.02
			C2034.84,1271.9,2046.81,1260.89,2057.93,1248.95z"/>
		<path class="st50" d="M691.92,1324.18c-0.02,6.91-9.31,19.76-15.62,21.6c-8.14,2.38-19.83-7.95-17.67-16.18
			c2.21-8.45,7.49-15.41,13.33-21.81c1.96-2.15,4.56-2.45,7.32-1.41C685.11,1308.59,691.94,1318.17,691.92,1324.18z"/>
		<path class="st16" d="M1680.18,1131.2c-4.64,5.11-8.69,2.66-12.9-0.79c-4.01-3.29-7.72-6.24-5.08-12.43
			c2.8-6.54,6.73-12.21,11.5-17.36c2.82-3.05,5.61-2.57,8.68,0.05c7.75,6.62,9.26,16.4,3.35,25.05c-1.46,2.14-3.74,3.72-5.65,5.55
			c-5.08-3.18-2.6-7.25-1.41-11.24c0.56-1.87,0.89-3.91-0.77-5.47c-0.78-0.73-1.87-0.46-2.65,0.21c-1.6,1.38-2.2,3.25-2.01,5.28
			C1673.7,1124.89,1676.99,1128.03,1680.18,1131.2z"/>
		<path class="st51" d="M1157.9,1009.15c-0.02-7.5-0.08-15.01-0.02-22.51c0.02-1.94,0.31-3.91,0.72-5.8
			c0.35-1.61,1.17-3.12,3.05-3.4c1.98-0.3,3.04,1.02,3.57,2.63c0.5,1.53,0.66,3.18,0.97,4.77c0.42,0.51,0.63,1.05,0.62,1.64
			c-0.01,0.6-0.06,0.9-0.17,0.9c-6.83,7.95-1.13,15.01,2.59,21.21c4.63,7.74,12.62,10,21.65,8.36c5.08-0.92,10.77-5.47,14.93,1.79
			c0.04,0.77,0.07,1.55,0.11,2.32c-1.57,0.52-3.3,0.78-4.7,1.6C1185.73,1031.77,1165.75,1024.77,1157.9,1009.15z"/>
		<path class="st52" d="M893.89,1106.96c-1.8,6.21-6.34,10.9-9.16,16.54c-1.6,3.18-4.2,6.13-0.23,9.73
			c4.91,4.44,9.35,6.2,13.38,3.89c6.17-3.55,9.03-9.59,10.9-16.1c0.7-2.43-0.84-4.48-2.3-6.34c-1.85-2.36-3.79-4.66-4.43-7.72
			c15.67,12.07,12.59,15.1,2.97,28.09c-5.58,7.53-10.71,7.97-18.96,2.99c-1.98-1.2-3.97-2.4-5.91-3.67
			c-2.2-1.45-3.34-3.54-1.87-5.92C882.93,1120.89,886.21,1112.32,893.89,1106.96z"/>
		<path class="st53" d="M1279.95,1242.95c-0.66,0.02-1.32,0.03-1.98,0.05c-0.39-0.13-0.77-0.25-1.16-0.38
			c-2.01-1.25-1.62-3.57-2.42-5.37c-0.42-0.68-0.8-1.39-1.13-2.12c-0.17-0.83,0.06-1.54,0.69-2.12c2.3-2.1,3.59-4.73,3.89-7.79
			c0.54-5.56,4.17-9.61,6.85-14.1c1.43-2.4,3.73-4.23,6.56-2.27c2.3,1.59,1.85,4.45,0.49,6.27c-3.81,5.1-5.2,11.36-8.5,16.63
			C1281.03,1235.29,1280.08,1238.93,1279.95,1242.95z"/>
		<path class="st9" d="M432.01,1226.97c5.15-6.62,6.59-15.12,11.25-21.99c1.43-2.12,2.25-5.48,5.77-3.67c2.79,1.43,2.83,4.41,2,7.03
			c-0.69,2.17-1.94,4.18-3.12,6.16c-3.9,6.55-7.66,13.15-9.82,20.52c0,0-0.18-0.16-0.18-0.16
			C435.12,1232.84,435.32,1228.59,432.01,1226.97z"/>
		<path class="st54" d="M1429.89,959.18c-3.12-1.22-5.66-0.18-7.93,1.99c3.49-9.55,7.97-18.65,12.82-27.57
			c0.84-1.54,2.15-2.61,4-2.03c1.81,0.57,2.4,2.23,2.46,3.91c0.05,1.28,0.07,2.86-0.59,3.83
			C1436.38,945.57,1435.17,953.48,1429.89,959.18z"/>
		<path class="st55" d="M1483.92,943.16c-2.8-2.59-5.62-2.98-8.63-0.27c-1.69,1.52-3.55,2.85-5.33,4.27
			c6.41-14.94,14.86-28.38,27.73-38.75c3.13-2.53,6.12-4.94,10.31-5.18c2.01,2.03,1.22,4.25,0.42,6.46
			c-0.8,1.18-2.09,1.61-3.31,2.15c-1.17,0.54-2.16,1.37-3.18,2.14c-1.04,0.71-2.1,1.39-3.13,2.11c-3.19,2.35-6.95,4.27-6.87,9.11
			C1488.66,930.92,1482.65,935.42,1483.92,943.16z"/>
		<path class="st56" d="M519.99,1187c-0.08,0.6-0.15,1.2-0.21,1.79c-1.15,0.78-2.29,1.56-3.44,2.34c0,0-0.37,0.03-0.37,0.03
			c0,0,0.17-0.33,0.17-0.33c0,0,0.11,0.36,0.11,0.36c-2,3.71-5.04,6.48-8.41,10.22c-2.62-5.52,2.75-8.35,2.37-12.29
			c1.68-1.57,3.62-2.95,4.99-4.76c2.14-2.81,5.74-4.86,5.69-8.94c-0.05-4.33-4.19-4.49-6.85-6.15c-2.99-1.87-3.73-4.68-2.4-7.7
			c1.05-2.38,2.79-4.45,4.22-6.65c0.71,0.03,1.41,0.07,2.12,0.11c6.19,3.86,8.58,10.25,10.26,16.72c0.64,2.46,1.08,5.03,1.94,7.47
			c-2.69,1.98-5.38,3.95-8.08,5.93c0,0-0.87-0.08-0.87-0.08c-0.66,0.08-1.07,0.44-1.24,1.08L519.99,1187z"/>
		<path class="st57" d="M1591.66,972.92c2.19-2.82,4.4-5.63,4.07-9.53c-0.56-0.73-0.99-1.52-1.31-2.38
			c2.42-6.92,9.74-12.01,7.67-20.62c0.67-2.3,0.97-4.83,3.36-6.19c2.8-0.51,5.86,1.01,8.46-1.08l0.06,0.06
			c0.65-0.69,1.35-1.33,1.93-2.07l-0.09-0.1c0.81-0.53,1.7-0.81,2.67-0.81c1.54,0.31,2.49,1.24,2.85,2.77
			c-0.07,2.23-1.96,3.1-3.29,4.38l0.02-0.13c-1.35,0.95-0.83,2.92-2.13,3.9c-5.31,7.53-9.73,15.38-12.52,24.33
			c-2.11,6.79-5.6,13.29-11.33,18.09c-0.44-0.19-0.88-0.38-1.32-0.56C1586.79,979.23,1593.3,976.44,1591.66,972.92z"/>
		<path class="st58" d="M1547.92,967.14c3.17-4.62,6.4-9.16,6.85-15.08c0.15-1.9,1.13-4.17,3.54-4.09c3.18,0.11,3.59,3.05,3.19,5.14
			c-2.13,11.04-5.36,21.68-13.56,30.02c-1.06,1.15-2.41,1.01-3.76,0.83c-2.69-1.56-2.67-3.29-0.42-5.31
			c2.39-2.15,2.17-5.2,2.54-8.03C1546.63,969.36,1546.96,968.1,1547.92,967.14z"/>
		<path class="st35" d="M985.72,998.76c0.12,0.82,0.24,1.64,0.36,2.47c-7.83,9.02-15.65,18.05-26.71,23.4
			c-13.32,6.44-32.75,3.17-41.84-7.11c0.32-0.27,0.64-0.54,0.96-0.81c3.09-2.47,6.06-1.59,9.24,0.03
			c10.03,5.1,19.82,3.75,29.66-0.98c9.62-4.62,17-12.31,25.8-18C984.16,997.82,985,998.14,985.72,998.76z"/>
		<path class="st59" d="M1596.02,961c-0.1,0.8-0.19,1.59-0.29,2.39c-12.91-1.79-16.41-7.28-12.17-19.51
			c0.96-2.77,2.44-5.42,4.04-7.9c5.62-8.71,8.33-9.47,17.73-4.86c2.77,1.36,5.57,1.95,8.58,2c-2.5,1.57-5.3,2.01-8.16,2.23
			c-1.52,1.09-2.94,2.31-4.38,3.51c-10.16,5.18-10.83,7.17-5.27,16.76C1597.24,957.58,1597.22,959.22,1596.02,961z"/>
		<path class="st60" d="M1618.15,931.28c-0.78-0.1-1.56-0.19-2.34-0.29c2.29-3.03,4.21-6.42,7.99-7.94c1.89,2.38,5.13,1.4,7.21,2.72
			c3.37,2.13,6.7,4.94,2.86,9.53c1.96,6.19,1.96,6.19,8.18,1.9c-0.89,3.53-1.74,7.08-2.7,10.59c-0.45,1.67-1.37,3.09-3.31,3.17
			c-2.04,0.08-2.9-1.47-3.31-3.11c-0.48-1.92-0.55-3.93-0.96-5.87c-1.61-7.6-3.4-8.52-10.96-5.72c-0.93,0.35-1.86,0.71-2.78,1.07
			c0.63-1.4,1.26-2.8,1.88-4.2C1619.29,932.55,1618.7,931.93,1618.15,931.28z"/>
		<path class="st61" d="M1851.94,1268.97c-2,0.67-4,1.33-5.99,2c-5.16-5.91,0.45-8.43,4.03-10.08
			c12.35-5.66,19.46-16.94,29.01-25.58c1.58-1.43,0.77-2.91,0.9-4.41c1.89-1.71,3.75-3.49,7.02-3.93c0.29,6.05-2.15,11.08-4.93,16
			c-4.28,4.96-8.26,10.23-12.92,14.79C1864.16,1262.56,1858.54,1266.59,1851.94,1268.97z"/>
		<path class="st62" d="M1115.78,932.66c0.13,4.34,0.27,8.67,0.4,13.01c3.71,3.73,4.12,7.44-0.06,11.12
			c0.67,4.87,3.45,5.99,7.77,4.38c-2.19,4.39-4.37,8.78-6.59,13.15c-0.76,1.49-1.71,3.04-3.67,2.64c-2.36-0.48-3.45-2.68-2.75-4.47
			C1115.86,959.6,1112.2,945.69,1115.78,932.66z"/>
		<path class="st63" d="M1633.86,935.3c-1.74-2.89-4.2-4.86-7.4-5.94c-3.26-1.09-3.28-3.58-2.66-6.32c1.35-1.31,2.7-2.63,4.05-3.94
			c6.39,0.58,9.95,4.38,11.26,10.35C1640.01,933.53,1638.23,935.7,1633.86,935.3z"/>
		<path class="st64" d="M1543.93,983.05c1.33,0.02,2.67,0.05,4,0.07c-4.97,3.39-10.8,4.7-16.34,6.67c-1.92,0.68-4.07,0.49-5.25-1.48
			c-1.29-2.15,0.14-3.77,1.7-5.06c6.6-5.41,13.25-10.76,19.89-16.13c-0.04,1.3-0.08,2.6-0.12,3.9c0.09,0.42,0.19,0.84,0.28,1.26
			c0.08,0.88-0.08,1.71-0.57,2.43C1546.19,977.43,1541.14,978.59,1543.93,983.05z"/>
		<path class="st65" d="M2119.89,1274.87c0.74,0.07,1.48,0.13,2.22,0.2c-2.13,5.76-6.39,8.9-12.22,10.46
			c-4.77,1.28-9.39,3.07-14.13,4.47c-2.29,0.67-4.8,0.73-6.06-1.79c-1.42-2.83,0.68-4.36,2.83-5.34c3.9-1.77,6.71-5.45,11.12-6.3
			c0.47,0.11,0.93,0.23,1.4,0.34c4.74,3.92,7.67-0.24,11.09-2.4c0.86-0.22,1.68-0.26,2.52-0.02
			C2119.07,1274.62,2119.48,1274.75,2119.89,1274.87z"/>
		<path class="st56" d="M1520.14,1275c-4.1,1.99-6.7,6.37-11.49,7.26c-1.32,0.24-2.73,0.31-3.6-0.86c-0.95-1.28-0.24-2.56,0.78-3.39
			c4.29-3.52,8.47-7.22,13.07-10.3c3.45-2.31,4.42,0.76,5.17,3.41C1522.76,1272.4,1521.45,1273.7,1520.14,1275z"/>
		<path class="st60" d="M738.19,1249.19c0.6-0.08,1.21-0.15,1.82-0.22c0.52,5.65-1.52,10.38-5.18,14.55
			c-1.71,1.95-3.24,4.85-6.39,2.87c-2.26-1.42-1.95-4.03-1.25-6.34c1.53-5.06,3.13-10.1,4.71-15.15c0.32,2.46,0.27,5.05,1.05,7.36
			c1,2.97,2.91,2.86,4.76,0.47C736.64,1251.38,736.76,1250.19,738.19,1249.19z"/>
		<path class="st66" d="M1761.89,1193.14c-1.29-1.03-2.66-1.98-3.87-3.1c-9.42-8.7-9.67-11.03-2.66-21.83
			c3.41-5.26,6.16-10.96,10.44-15.65c0.9,0.29,1.68,0.77,2.32,1.43c1.52,4.29,1.07,8.48-1.59,12.08c-5.18,7.01-6.7,14.06-1.55,21.77
			c0.77,1.15-0.13,2.53-0.66,3.73C1763.65,1192.32,1762.84,1192.85,1761.89,1193.14z"/>
		<path class="st24" d="M1165.81,987.46c0.13-0.87,0.25-1.75,0.38-2.63c0.56,0.15,1.11,0.28,1.67,0.39c0.06,1.3,0.13,2.6,0.19,3.91
			c0.61,0.69,1.23,1.36,1.88,2.01l0,0c0.69,0.64,1.35,1.31,2,1.99l0,0c0.68,0.65,1.35,1.32,2,1.99h0c0.67,0.66,1.34,1.32,1.99,2.01
			l0,0c0.67,0.65,1.34,1.29,2.02,1.92c0.66,0.03,1.32,0.06,1.98,0.09c7.35,1.54,14.69,1.54,22.04,0c1.32-0.05,2.64-0.09,3.96-0.14
			c3.39-1.03,4.95-6.24,9.67-4.2l0.61,0.68c2.44,5.29-0.96,8.33-4.92,9.71c-11.14,3.87-22.83,4.41-34.14,1.48
			C1166.68,1003.96,1162.05,995,1165.81,987.46z"/>
		<path class="st19" d="M497.98,1318.86c-0.03-0.77-0.06-1.54-0.09-2.3c-2.92-3.36-0.74-5.97,1.23-8.67
			c5.17-7.11,10.1-14.39,16.05-20.92c2.02-2.21,4.45-4.51,2.8-8.09c6-1.99,5.34,2.64,5.95,5.99c-3.88,6.03-7.88,11.99-11.59,18.12
			C508.54,1309.23,503.82,1314.54,497.98,1318.86z"/>
		<path class="st67" d="M1030.03,1282.99c-0.05,0.61-0.09,1.23-0.12,1.84c-4.88,0.8-9.58,2.1-14.06,4.29
			c-2.09,1.03-4.71,1.53-5.88-1.35c-0.94-2.32,1-3.38,2.75-4.46c4.44-2.74,8.81-5.62,13.2-8.44c0.73-0.65,1.58-0.95,2.56-0.84
			C1032.58,1276.39,1028.53,1280.17,1030.03,1282.99z"/>
		<path class="st25" d="M838.02,1268.95c-0.05-0.65-0.08-1.3-0.1-1.95c-3.67-7.78-3.91-15.83-1.96-24.07l0,0.01
			c2.42-3.02-0.35-7.04,1.95-10.08c0.04-1.29,0.08-2.59,0.12-3.88c0.22-0.52,0.44-1.04,0.66-1.56c0.33,0.46,0.66,0.92,1,1.37
			l0.59,0.28c5.32,3.04,4.69,8.5,4.39,13.08c-0.7,10.47,0.23,20.61,3.52,30.54c1.02,3.07,1.49,5.85-1.77,7.87
			c-0.3,0.24-0.61,0.49-0.92,0.73c-1.87-2.08-3.75-4.16-5.62-6.24C838.16,1273.35,839.82,1270.63,838.02,1268.95z"/>
		<path class="st10" d="M1923.94,1272.92c0.03-0.64,0.05-1.29,0.04-1.93c8.49-6.66,16.49-13.76,22.22-23.11
			c1.72-2.81,3.45-5.51,3.81-8.86c0.58-0.13,1.16-0.27,1.74-0.42c2.74,1.15,3.25,3.7,2.26,5.77c-5.39,11.26-9.39,23.58-21.74,29.86
			C1928.98,1275.9,1926.14,1277.01,1923.94,1272.92z"/>
		<path class="st68" d="M1491.94,925.2c-1.81,0.61-3.63,1.21-6.33,2.12c2-7.24,7.54-10.41,11.88-14.53
			c0.88,0.18,1.76,0.36,2.64,0.57c3.67,0.31,7.22-3.95,10.99-0.29c0.6,0.73,1.01,1.55,1.21,2.47c-2.11,2.36-4.94,3.07-7.92,3.37
			c-3.37,0.33-6.42,1.25-8.49,4.19c-0.99,1.31-2.93,0.84-3.95,2.09L1491.94,925.2z"/>
		<path class="st64" d="M1592.07,983.53c-4.44,2.08-8.84,4.27-13.35,6.19c-1.54,0.66-3.44,0.33-4.35-1.28
			c-1.28-2.28,0.21-3.79,2.12-4.65c2.71-1.22,5.36-2.47,7.55-4.53c2.83,0.63,5.81,0.91,7.73,3.52L1592.07,983.53z"/>
		<path class="st69" d="M1309.91,963.3c0.03-0.72,0.06-1.44,0.09-2.17c8.88-4.94,14.01-15.94,25.91-15.98
			c0.04,0.77,0.08,1.53,0.13,2.3c-4.56,5.11-8.41,10.88-13.93,15.11C1318.2,965.56,1314.25,967.52,1309.91,963.3z"/>
		<path class="st68" d="M1503.77,907.01c1.41-1.26,2.82-2.52,4.22-3.78c3.26-1.66,6.53-5.98,10.22-1.82
			c3.04,3.42-0.43,6.62-2.27,9.54c-1.03,1.63-2.4,3.06-3.62,4.58c-0.27-0.26-0.55-0.53-0.82-0.79c-1.75-2.34-3.5-4.68-6.65-5.27
			C1504.29,908.74,1503.93,907.92,1503.77,907.01z"/>
		<path class="st70" d="M1591.76,982.77c-3.33,0.48-5.99-0.52-7.73-3.52c2.54-2.11,5.09-4.22,7.63-6.33
			C1596.71,976.15,1592.6,979.48,1591.76,982.77z"/>
		<path class="st20" d="M1181.91,1162.99c-0.03,4.91-0.12,9.82-0.09,14.73c0.03,6.44-1.56,12.3-5.84,17.28
			C1177.96,1184.33,1179.94,1173.66,1181.91,1162.99z"/>
		<path class="st40" d="M1765.96,1155.06c-0.05-0.83-0.11-1.66-0.17-2.49c3.25-1.61,5.69-0.24,7.91,2.1
			c3.41,3.61,6.79,7.24,8.68,11.96c-0.33,0.24-0.66,0.48-0.99,0.72c-7.21,3.01-9.63-2.67-12.16-7.19
			C1768.23,1158.37,1768.06,1156.16,1765.96,1155.06z"/>
		<path class="st13" d="M669.86,1198.91c0.1,0.75,0.21,1.49,0.31,2.24c0.1,0.53,0.2,1.07,0.29,1.61c-0.03,1.12-0.21,2.2-0.52,3.28
			c-0.27,0.5-0.54,0.99-0.81,1.5c-0.74,0.9-1.57,1.69-2.5,2.39c-1.01,0.64-2.09,1.04-3.27,1.2c-8.47,0.68-16.71,0.46-23.31-6.06
			c0,0-0.26-0.35-0.26-0.35c3.44-1.45,7.06-2.05,10.75-1.82C657.38,1203.33,663.78,1201.95,669.86,1198.91z"/>
		<path class="st17" d="M1405.93,1308.81c-9.62,6.09-19.74,4.85-29.96,2C1386.01,1310.93,1396.05,1311.18,1405.93,1308.81z"/>
		<path class="st71" d="M1229.88,947.23c-0.05,0.7-0.1,1.39-0.15,2.09c-5.25,8.26-10.43,2.87-15.63-0.08
			c1.42-5.84,5.71-4.8,9.85-4.1C1225.94,945.84,1227.91,946.53,1229.88,947.23z"/>
		<path class="st17" d="M432.01,1226.97c6.95-1.09,5.5,4.09,5.89,7.89c-1.99-0.64-3.97-1.27-5.95-1.91
			C431.96,1230.95,431.98,1228.96,432.01,1226.97z"/>
		<path class="st13" d="M835.96,1242.94c-0.4,8.11,0.5,16.11,1.96,24.07C832.76,1259.35,832.82,1251.27,835.96,1242.94z"/>
		<path class="st21" d="M587.73,1236.9c0.64,0.02,1.29,0.03,1.93,0.04c5.51,2.81,5.17,6.98,2.69,11.64
			c-0.26,0.25-0.52,0.51-0.78,0.76C586.89,1246.24,585.59,1242.1,587.73,1236.9z"/>
		<path class="st34" d="M1201.97,999.15c-7.35,2.55-14.69,2.56-22.04,0C1187.28,999.15,1194.63,999.15,1201.97,999.15z"/>
		<path class="st13" d="M839.69,1228.79c-0.55,0.07-1.1,0.14-1.66,0.19c0.27-7.38-1.14-14.91,1.89-22.06
			C839.84,1214.21,839.76,1221.5,839.69,1228.79z"/>
		<path class="st13" d="M843.88,1190.9c-0.02,5.05-1.09,9.8-3.91,14.07C840.05,1199.94,841.24,1195.22,843.88,1190.9z"/>
		<path class="st34" d="M1215.6,994.81c-3.22,1.4-6.45,2.8-9.67,4.2c2.45-3.46,5.71-5.54,9.99-5.9
			C1215.84,993.68,1215.73,994.25,1215.6,994.81z"/>
		<path class="st72" d="M1761.89,1193.14c0.04-0.79,0.08-1.57,0.12-2.36c2.63-2.45,5.2-1.92,7.75,0.14
			c0.67,0.02,1.34,0.04,2.01,0.06C1769.22,1195.12,1765.84,1195.44,1761.89,1193.14z"/>
		<path class="st65" d="M2111.71,1270.65c0.02,0.7,0.04,1.39,0.06,2.09c-0.03,5.4-1.8,8.08-7.42,4.73c-0.23-0.3-0.47-0.59-0.7-0.89
			C2105.96,1274.09,2108.32,1271.68,2111.71,1270.65z"/>
		<path class="st73" d="M1196.12,307.79c-0.8-0.79-1.6-1.58-2.41-2.37c1.58-2.68,3.86-4.68,6.34-6.47c0.87,0.89,0.94,1.85,0.22,2.86
			C1198.89,303.81,1197.51,305.8,1196.12,307.79z"/>
		<path class="st74" d="M1388.14,305.47c-0.81,0.79-1.62,1.59-2.43,2.38c-1.38-1.99-2.75-3.98-4.13-5.97
			c-0.7-1.01-0.59-1.93,0.31-2.76C1384.37,300.85,1386.61,302.82,1388.14,305.47z"/>
		<path class="st75" d="M1121.87,651.63c0.77-0.77,1.53-1.55,2.3-2.32c1.19,1,3.05,2.22,1.62,3.71
			C1124.43,654.43,1122.98,652.75,1121.87,651.63z"/>
		<path class="st76" d="M1457.74,649.27c0.75,0.75,1.51,1.51,2.26,2.26c-1.1,1.12-2.54,2.85-3.89,1.45
			C1454.68,651.51,1456.55,650.27,1457.74,649.27z"/>
		<path class="st55" d="M1469.87,949.09c-0.02,3.39-0.04,6.79-0.06,10.18C1468.1,955.86,1468.09,952.47,1469.87,949.09z"/>
		<path class="st13" d="M837.91,1232.86c0.07,3.5-0.23,6.93-1.95,10.08C835.94,1239.46,836.34,1236.05,837.91,1232.86z"/>
		<path class="st39" d="M1351.95,1292.91c-2.07-2.29-3.34-4.97-3.93-7.99C1350.46,1287.02,1351.65,1289.75,1351.95,1292.91z"/>
		<path class="st53" d="M1273.93,1243c-0.67-0.02-1.33-0.03-2-0.05c0.04-2.66,0.07-5.33,0.11-7.99c0.63-0.8,1.27-0.8,1.91-0.01
			l0.21,0.28c1.95,2.07,2.13,4.4,1.01,6.92C1274.75,1242.43,1274.34,1242.72,1273.93,1243z"/>
		<path class="st77" d="M1381.89,299.12c-0.1,0.92-0.21,1.84-0.31,2.76c-1.08-0.98-2.6-2-1.69-3.6
			C1380.36,297.47,1381.39,298.35,1381.89,299.12z"/>
		<path class="st18" d="M1027.69,1272.71c1.94-1.41,3.88-2.83,5.82-4.24c0.24,0.26,0.49,0.52,0.74,0.78
			c1.6,4.21-0.28,5.69-4.31,5.49C1029.08,1274.19,1028.32,1273.51,1027.69,1272.71z"/>
		<path class="st13" d="M838.02,1268.95c0.62,2.03,1.24,4.06,1.86,6.1C839.26,1273.02,838.64,1270.99,838.02,1268.95z"/>
		<path class="st49" d="M2058.01,1278.99c-2,0.68-4,1.36-6,2.04c0,0-0.23-0.36-0.23-0.36c-0.09-4.25,2.21-4.39,5.33-3.08
			C2057.41,1278.06,2057.71,1278.52,2058.01,1278.99z"/>
		<path class="st49" d="M2059.92,1270.93c0.69,0.04,1.38,0.08,2.07,0.12c-0.67,1.99-1.33,3.98-2,5.96
			c-0.46-0.27-0.91-0.54-1.37-0.81c-0.96-1.46-0.98-2.94-0.04-4.42C2059.03,1271.49,2059.47,1271.21,2059.92,1270.93z"/>
		<path class="st78" d="M1200.27,301.81c-0.07-0.95-0.15-1.9-0.22-2.86c0.6-0.48,1.2-0.96,1.8-1.44l0.25,0.24
			C1201.5,299.11,1200.89,300.46,1200.27,301.81z"/>
		<path class="st23" d="M1460,1023.01c1.35-0.62,2.69-1.23,4.04-1.85C1462.69,1021.78,1461.34,1022.4,1460,1023.01z"/>
		<path class="st60" d="M1615.92,941.1c0.71-1.3,1.42-2.6,2.13-3.9C1617.34,938.5,1616.63,939.8,1615.92,941.1z"/>
		<path class="st23" d="M1453.96,1025.14c1.35-0.67,2.69-1.34,4.04-2C1456.66,1023.81,1455.31,1024.48,1453.96,1025.14z"/>
		<path class="st23" d="M1449.98,1027.05c1.33-0.64,2.66-1.27,3.99-1.91C1452.64,1025.78,1451.31,1026.41,1449.98,1027.05z"/>
		<path class="st55" d="M1491.96,925.18c1.32-0.7,2.63-1.39,3.95-2.09C1494.6,923.78,1493.28,924.48,1491.96,925.18z"/>
		<path class="st34" d="M1171.94,993.14c-0.67-0.66-1.34-1.33-2-1.99C1170.61,991.81,1171.27,992.48,1171.94,993.14z"/>
		<path class="st23" d="M1479.92,989.1c-0.67,0.67-1.34,1.33-2.01,2C1478.58,990.43,1479.25,989.76,1479.92,989.1z"/>
		<path class="st34" d="M1169.94,991.15c-0.63-0.67-1.25-1.34-1.88-2.02C1168.69,989.8,1169.31,990.47,1169.94,991.15z"/>
		<path class="st23" d="M1481.92,987.05c-0.67,0.69-1.34,1.37-2.01,2.06C1480.58,988.42,1481.25,987.74,1481.92,987.05z"/>
		<path class="st23" d="M1465.99,1021.02c0.62-0.62,1.23-1.24,1.85-1.86C1467.22,1019.78,1466.6,1020.4,1465.99,1021.02z"/>
		<path class="st60" d="M1615.89,931.1c-0.64,0.69-1.29,1.38-1.93,2.07C1614.61,932.48,1615.25,931.79,1615.89,931.1z"/>
		<path class="st34" d="M1177.96,999.06c-0.67-0.64-1.35-1.28-2.02-1.92C1176.61,997.78,1177.28,998.42,1177.96,999.06z"/>
		<path class="st37" d="M1273.95,1234.95c-0.64,0.01-1.27,0.01-1.91,0.01c0.64-0.65,1.28-1.3,1.92-1.95
			C1273.95,1233.65,1273.95,1234.3,1273.95,1234.95z"/>
		<path class="st78" d="M1201.86,297.51c0,0,0.24,0.23,0.24,0.24C1202.11,297.75,1201.86,297.51,1201.86,297.51z"/>
		<path class="st49" d="M2059.99,1277.01c-0.66,0.66-1.32,1.32-1.98,1.98c0,0-0.19-0.23-0.19-0.23c-0.44-1.71,0.22-2.34,1.92-1.95
			C2059.74,1276.81,2059.99,1277.01,2059.99,1277.01z"/>
		<path class="st18" d="M1027.95,1274.92c-0.68-0.02-1.36-0.03-2.04-0.05c0.6-0.72,1.19-1.44,1.78-2.16
			c0.25,0.22,0.51,0.45,0.76,0.68l0.25,0.93C1028.71,1274.32,1027.95,1274.92,1027.95,1274.92z"/>
		<path class="st34" d="M1175.94,997.14c-0.66-0.67-1.33-1.34-1.99-2.01C1174.61,995.8,1175.27,996.47,1175.94,997.14z"/>
		<path class="st23" d="M1470.01,1016.99c0.69-0.61,1.38-1.21,2.07-1.82C1471.39,1015.78,1470.7,1016.39,1470.01,1016.99z"/>
		<path class="st34" d="M1173.95,995.13c-0.67-0.66-1.34-1.33-2-1.99C1172.61,993.8,1173.28,994.47,1173.95,995.13z"/>
		<path class="st17" d="M1376,1310.86c-0.69-0.64-1.37-1.28-2.06-1.92C1374.63,1309.58,1375.32,1310.22,1376,1310.86z"/>
		<path class="st79" d="M1879.89,1230.9c3.21,2.06,3.41,4.69,1.22,7.55c-8.02,10.49-15.88,21.19-28.48,26.8
			c-2.83,1.26-4.97,3.21-6.68,5.72c0,0,0-0.01,0-0.01c-11.6,4.14-23.97,5.8-35.18,11.24c-3.57,1.73-7.68,1.68-11.7,1.78
			c-8.75,0.21-17.97-2.09-25.43,5.28c-1.78,1.75-5.14,0.62-7.77,0.64c-9.29,0.05-18.59-0.07-27.88,0.05
			c-6.67,0.09-13.26,0.37-18.91-4.25c-1.49-1.22-3.67-2.07-5.62-1.67c-7.49,1.53-12.5-2.83-17.64-7.01
			c-11.67-10.24-8.5-23.25-4.51-34.01c1.66-4.49,4.18-4.99,7.4-1.56c7.52,8.01,17.36,11.3,27.57,12.07
			c26.89,2.01,53.83,1.21,80.78,0.43c12.43-0.36,24.33-3.78,35.94-6.64C1855.76,1244.13,1869.02,1239.55,1879.89,1230.9z"/>
		<path class="st61" d="M1695.81,1277.01c22.71,10.79,46.74,13.33,71.48,11.47c1.64-0.12,3.56-0.09,4.84-0.91
			c8.04-5.17,17.01-4.83,25.97-4.89c4-0.02,8.05-0.48,11.65-2.27c8.67-4.32,18.78-3.92,27.38-8.69c2.35-1.3,5.84-0.56,8.81-0.75
			c-11.41,6.28-24.54,7.73-36.4,12.83c-2.9,1.25-6.52,1.03-9.82,1.14c-8.6,0.28-17.14,0.11-25.14,4.5
			c-2.66,1.46-6.47,1.07-9.76,1.12c-8.62,0.14-17.24-0.02-25.85,0.08c-7.68,0.09-15.12-0.34-22.23-3.98
			c-5.83-2.99-13.36-1-18.75-5.78C1697.27,1279.57,1696.54,1278.29,1695.81,1277.01z"/>
		<path class="st11" d="M663.79,1103.87c-0.08,3.42-1.07,6.52-3.14,9.3c-3.42,4.59-6.35,5.68-10,3.57
			c-4.71-2.71-6.41-6.93-4.26-11.74c1.62-3.63,3.49-7.24,5.82-10.44c3.7-5.09,7.85-4.37,10.37,1.48
			C663.67,1098.54,663.86,1101.19,663.79,1103.87z"/>
		<path class="st80" d="M1217.87,1250.88c-3.7,1.43-7.7,2.38-11.03,4.41c-5.8,3.54-10.52,1.87-15.61-1.44
			c-4.55-2.96-7.74-6.47-6.71-12.13c0.99-5.47,5.19-8.42,10.07-9.93c4.45-1.38,9.23-1.21,13.78-0.18c5.39,1.22,8.6,4.83,9.26,10.34
			c0.35,2.94,0.18,5.94,0.24,8.92C1217.87,1250.86,1217.87,1250.88,1217.87,1250.88z"/>
		<path class="st5" d="M1183.95,1163c5.27-0.54,4.74,3.52,4.76,6.53c0.05,5.17-0.44,10.35-0.7,15.53c-4.01-0.51-4.11-3.57-4.13-6.53
			C1183.83,1173.35,1183.92,1168.18,1183.95,1163z"/>
		<path class="st3" d="M1633.91,1246.88c0.09-0.65,0.19-1.29,0.3-1.94c0.9-1.26,1.29-3.53,3.68-1.87c-0.01,1.95-0.03,3.89-0.04,5.84
			c-0.6,0.7-1.23,1.37-1.87,2.04c-0.04,0.65-0.07,1.3-0.11,1.94c-0.61,0.7-1.25,1.37-1.93,2l-0.05,0.05
			c-0.63,0.68-1.29,1.33-1.96,1.97l-0.03,0.03c-0.64,0.68-1.3,1.34-1.96,1.99l0,0c-0.66,0.67-1.33,1.33-1.99,2l-0.01,0.01
			c-0.65,0.68-1.38,1.28-2.02,1.96c-0.66,0.03-1.33,0.06-1.99,0.08c-1.91,1.65-4.21,0.68-6.33,0.95c-1.3,0.02-2.64-0.09-3.69,0.94
			c-1.99,1.36-3.98,2.71-5.97,4.07c-0.62,0.71-1.35,1.3-2.01,1.97l-0.01,0.01c-0.65,0.67-1.32,1.34-1.99,2l0,0
			c-0.66,0.67-1.32,1.33-2,1.98l-0.01,0c-0.55,0.55-1.22,0.88-1.98,1.02c-0.77,0.14-1.43,0.47-1.99,1l0,0
			c-0.69,0.64-1.28,1.37-1.98,2c-0.67,0.67-1.35,1.34-2.02,2.02c-1.61,1.85-4.38,0.12-6,1.94l-0.02,0.03
			c-0.64,0.66-1.29,1.31-1.97,1.94l-0.07,0.07c-0.62,0.67-1.27,1.31-1.97,1.9c-0.65,0.04-1.31,0.08-1.96,0.12
			c-2,1.37-4.01,1.37-6.01,0c-11.07-5.34-17.09-14.16-18.26-26.36c-0.26-2.69-1.2-5.13-2.62-7.44c-1.85-3.02-3.76-5.74,2.11-6.96
			c3.5-0.73,1.1-3.71,0.59-5.76c-3.13-12.45-2.07-24.95-0.42-37.45c0.06-0.44,0.9-0.77,2.53-2.07c0,7.71-0.62,14.6,0.13,21.35
			c1.41,12.65,4.62,24.72,15.93,32.69c3.14,1.04,6.26,2.18,9.44,3.1c4.26,1.24,8.53,1.14,12.67-0.54
			c8.28-3.35,9.42-10.32,2.66-16.04c-5.96-5.04-5.92-6.21,0.33-10.5c10.61-7.27,17.14-7.41,25.32-1.18c4.57,3.48,4.1,6.23-0.2,9.21
			c-2.08,1.77-0.68,4.24-1.28,6.29c-2.28,7.8,0.92,8.46,7.02,5.51l-0.07,0.11C1633.41,1250.03,1632.23,1247.71,1633.91,1246.88z"/>
		<path class="st3" d="M1563.81,1180.69c-2-3.94-2.39-7.85,0.34-12.87C1566.53,1172.93,1565.97,1176.8,1563.81,1180.69z"/>
		<path class="st44" d="M1615.94,1262.97c2.66,0,5.33,0.01,7.99,0.01c-2.51,1.31-5.22,1.76-8.01,1.84
			c-0.56-0.42-0.75-0.83-0.56-1.24C1615.56,1263.17,1615.75,1262.97,1615.94,1262.97z"/>
		<path class="st44" d="M1637.88,1243.07c-1.23,0.62-2.45,1.25-3.68,1.87c0.61-1.31,1.21-2.61,1.82-3.91
			C1636.64,1241.71,1637.26,1242.39,1637.88,1243.07z"/>
		<path class="st81" d="M1575.93,1286.95c2,0,4,0,6.01,0C1579.94,1288.04,1577.94,1288.04,1575.93,1286.95z"/>
		<path class="st81" d="M1587.94,1282.88c2-0.65,4-1.29,6-1.94C1591.94,1281.59,1589.94,1282.24,1587.94,1282.88z"/>
		<path class="st44" d="M1644.18,1237.06c-0.03,0.64-0.13,1.26-0.28,1.88c-0.66-0.01-1.31-0.02-1.97-0.02
			c-0.29-0.38-0.58-0.76-0.87-1.14c0.19-0.44,0.37-0.88,0.56-1.32c0.47-0.08,0.94-0.17,1.41-0.25
			C1643.42,1236.49,1643.8,1236.78,1644.18,1237.06z"/>
		<path class="st81" d="M1635.97,1250.95c0.62-0.68,1.25-1.36,1.87-2.04C1637.22,1249.59,1636.59,1250.27,1635.97,1250.95z"/>
		<path class="st44" d="M1633.93,1254.89c0.64-0.67,1.29-1.33,1.93-2C1635.22,1253.56,1634.58,1254.23,1633.93,1254.89z"/>
		<path class="st44" d="M1631.93,1256.91c0.65-0.66,1.31-1.31,1.96-1.97C1633.24,1255.6,1632.58,1256.25,1631.93,1256.91z"/>
		<path class="st81" d="M1629.93,1258.93c0.65-0.67,1.31-1.33,1.96-1.99C1631.24,1257.6,1630.59,1258.27,1629.93,1258.93z"/>
		<path class="st81" d="M1627.94,1260.93c0.66-0.67,1.33-1.33,1.99-2C1629.27,1259.6,1628.6,1260.27,1627.94,1260.93z"/>
		<path class="st81" d="M1625.92,1262.91c0.67-0.65,1.34-1.31,2.02-1.96C1627.26,1261.6,1626.59,1262.25,1625.92,1262.91z"/>
		<path class="st81" d="M1615.94,1262.97c0,0.62-0.01,1.24-0.02,1.85c-0.67,0.02-1.34,0.03-2.01,0.05
			C1614.59,1264.24,1615.26,1263.6,1615.94,1262.97z"/>
		<path class="st81" d="M1605.93,1270.91c0.67-0.66,1.34-1.32,2.01-1.97C1607.27,1269.6,1606.6,1270.26,1605.93,1270.91z"/>
		<path class="st81" d="M1603.94,1272.92c0.66-0.67,1.33-1.33,1.99-2C1605.26,1271.59,1604.6,1272.26,1603.94,1272.92z"/>
		<path class="st81" d="M1601.93,1274.9c0.67-0.66,1.33-1.32,2-1.98C1603.27,1273.58,1602.6,1274.24,1601.93,1274.9z"/>
		<path class="st81" d="M1597.94,1276.93c0.67-0.65,1.33-1.31,2-1.96c0.58,0.42,0.77,0.83,0.57,1.23c-0.2,0.4-0.39,0.61-0.59,0.61
			C1599.26,1276.85,1598.6,1276.89,1597.94,1276.93z"/>
		<path class="st44" d="M1599.92,1276.81c0.01-0.61,0.02-1.23,0.02-1.84c0.66-0.02,1.32-0.05,1.97-0.07
			C1601.25,1275.54,1600.59,1276.18,1599.92,1276.81z"/>
		<path class="st81" d="M1595.96,1278.93c0.66-0.67,1.32-1.33,1.98-2C1597.28,1277.59,1596.62,1278.26,1595.96,1278.93z"/>
		<path class="st81" d="M1585.95,1284.85c0.66-0.65,1.31-1.29,1.97-1.94C1587.26,1283.56,1586.6,1284.21,1585.95,1284.85z"/>
		<path class="st81" d="M1583.91,1286.83c0.66-0.63,1.31-1.27,1.97-1.9C1585.22,1285.56,1584.56,1286.19,1583.91,1286.83z"/>
		<path class="st81" d="M1641.94,1236.95c0,0.66,0,1.31,0,1.97c-0.68-0.67-1.36-1.33-2.04-2c0,0,0.07,0.04,0.07,0.04
			C1640.62,1236.2,1641.27,1236.15,1641.94,1236.95z"/>
		<path class="st82" d="M517.96,1278.88c3.95,2.54,2.69,5.41,0.64,8.47c-6.64,9.93-12.02,20.74-20.72,29.21
			c-2.22,1.47-4.59,2.76-6.65,4.43c-15.41,12.52-33.26,12.68-51.21,8.94c-8.87-1.85-14.63-9.3-17.18-18
			c-4.39-15.01-1.88-30.12,0.26-46.8c3.53,4.34,2.43,8.07,2.76,11.4c0.9,9.12,4.96,16.38,12.26,21.93c3.85,2.93,8.05,4.6,12.92,4.58
			c10-0.04,19.99-0.02,29.99-0.02c5.26,0,9.89-1.36,12.96-6.06c9.14-2.89,16.17-8.71,22.15-15.97c0.56-0.73,1.17-1.42,1.82-2.07
			L517.96,1278.88z"/>
		<path class="st56" d="M501.66,1218.65c1.74-3.24-0.18-5.61-1.79-8.16c-0.76-1.2-0.57-2.7,0.83-3.45c1.41-0.76,2.62,0.01,3.33,1.23
			c4.56,7.86,11.67,12.44,19.9,15.61c4.19,1.62,6.02,5.15,6.82,9.14c0.65,3.21,0.92,6.58,0.78,9.85
			c-0.53,12.55-3.96,14.56-15.31,9.27c-2.4-1.12-4.81-2.22-7.25-3.24c-9.39-3.92-11.09-6.4-10.95-16.42
			c0.05-3.97,0.07-7.97,1.72-11.71c0.45,0.13,0.89,0.26,1.34,0.39c3.4,1.31,5.47,3.57,5.66,7.4c0.12,2.32,0.21,4.69,1.32,6.82
			c2.04,3.93,5.67,5.48,9.75,6.12c1.87,0.29,3.33-0.77,3.59-2.64c0.6-4.29-2.28-6.66-5.28-8.91c-4.26-3.2-9.25-5.29-13.34-8.75
			C502.28,1220.4,501.91,1219.55,501.66,1218.65z"/>
		<path class="st19" d="M522.08,1267.01c1.25-0.02,2.63-0.4,3.72,0.01c1.73,0.65,2.02,2.31,1.49,4c-0.31,1-1.12,1.65-2.18,1.5
			c-1.47-0.21-2.03-1.43-2.4-2.69c-0.27-0.92-0.42-1.87-0.62-2.81C522.09,1267.02,522.08,1267.01,522.08,1267.01z"/>
		<path class="st56" d="M499.75,1220.77c0.64-0.71,1.28-1.41,1.92-2.12c0,0,0.42,0.48,0.42,0.48c0.45,1.66-0.22,2.26-1.85,1.95
			L499.75,1220.77z"/>
		<path class="st19" d="M517.96,1278.91c-0.61,0.69-1.22,1.38-1.82,2.07C516.74,1280.29,517.35,1279.6,517.96,1278.91z"/>
		<path class="st56" d="M1335.91,945.15c-4.44,2.99-7.58,7.25-11.15,11.12c-3.92,4.26-8.41,7.63-14.77,4.86
			c-0.3-0.14-0.63-0.24-0.9-0.43c-3.03-2.09-7.09,1.54-9.47-1.06c-2.88-3.15-1.29-7.63-1.54-11.55c-0.11-1.65,0-3.32,0.01-4.98
			c1.34-5.97,1.41-11.95-0.03-17.92c0.63-2.01,1.26-4.02,1.89-6.03c0.66-0.75,1.32-0.75,1.99-0.01c3.23,3.86,4.89,8.34,5.94,13.25
			c1.83,8.53,3.92,10.14,12.61,10.71C1325.68,943.46,1331.01,942.68,1335.91,945.15z"/>
		<path class="st69" d="M1271.77,985.45c-0.69-4.35,1.68-5.8,5.56-6.25c4.23-0.49,8.42-1.36,12.62-2.06
			c-5.66,8.9-8.13,10-18.29,8.16C1271.65,985.3,1271.77,985.45,1271.77,985.45z"/>
		<path class="st69" d="M1298.07,925.2c2.44,5.97,2.43,11.94,0.03,17.92C1298.09,937.14,1298.08,931.17,1298.07,925.2z"/>
		<path class="st69" d="M1293.18,973.68c0.66,0.37,0.81,0.99,0.17,1.54c-0.73,0.63-1.63,1.08-2.47,1.58
			c-1.09,0.64-1.2,0.48-0.45-0.53C1291.2,975.23,1291.67,973.91,1293.18,973.68z"/>
		<path class="st69" d="M1301.94,919.16c-0.66,0-1.33,0.01-1.99,0.01C1300.61,919.17,1301.28,919.16,1301.94,919.16z"/>
		<path class="st11" d="M846.41,1280.56c-6.17-11.81-9.13-24.12-6.78-37.54c0.8-4.55,0.46-9.29,0.64-13.95
			c2.16-17.37,6.92-34.37,7.24-52c0.05-2.66-0.55-7.39,3.27-7.04c3.69,0.34,2.32,4.77,2.06,7.56c-1.01,10.53-1.35,21.04-3.94,31.5
			c-2.38,9.58-2.17,19.78,1.21,29.48c1.53,3.71,1.34,8.41,6.01,10.29l-0.11-0.07c7.55,8.24,17.5,7.29,27.27,7.15
			c3.5-0.05,5.03-2.55,6.71-4.95l0.03-0.03c2.88-0.45,5.91-4.61,8.43-1.26c2.12,2.81-0.85,5.79-2.42,8.67
			c-2.21,4.04-6.15,6.69-7.95,10.93C879.57,1284.6,864.01,1288.8,846.41,1280.56z"/>
		<path class="st5" d="M888.07,1269.3c0.96-4.62,4.4-7.81,6.67-11.68c3.2-5.45,2.82-5.94-4.74-6.66c2.41-2.22,4.96-4.31,7.2-6.69
			c2.5-2.66,3.11-5.78,0.85-8.95c-2.13-2.99-5-4.39-8.53-2.67c-3.67,1.8-7.46,2.41-11.47,2.04c-5.28-4.97-6.11-9.95-2.01-16.56
			c3.45-5.56,5.32-12.16,9.46-17.38c4.96-6.24,7.88-6.24,14.01-1.13c4.29,3.58,7.32,7.97,7.57,13.49
			c0.51,11.22,0.46,22.33-4.46,33.02C898.75,1254.56,896.11,1263.56,888.07,1269.3z"/>
		<path class="st5" d="M889.97,1250.98c-0.99,2.12-2.26,3.92-4.54,4.88c-8.86,3.71-22.59,0.43-29.43-7.07
			c6.72,2.73,13.06,6.54,20.81,5.98C881.54,1254.43,886.07,1253.94,889.97,1250.98z"/>
		<path class="st83" d="M857.49,1152.64c-0.17,1.28-0.26,2.83-1.99,2.68c-1.07-0.09-1.26-1.38-1.21-2.36
			c0.06-1.28,0.17-2.84,1.94-2.68C857.31,1150.39,857.41,1151.65,857.49,1152.64z"/>
		<path class="st5" d="M856.11,1248.87c-5.08-1.64-6.06-5.66-6.01-10.29C852.11,1242,854.11,1245.44,856.11,1248.87z"/>
		<path class="st84" d="M592.35,1248.58c-2.39-3.53-2.63-7.56-2.69-11.64c4.35-9.62,4.45-19.91,4.57-30.15
			c0.09-7.66,0.32-15.2,4.2-22.15c1.48-2.66,1.46-5.73,1.55-8.71c0.12-3.97,0.12-7.95,0.52-11.89c0.32-3.11-0.01-8.47,3.7-7.94
			c4.8,0.68,2.71,5.61,1.94,9.03l-0.05-0.12c0.49,6.35-0.63,12.33-2.29,18.56c-2.9,10.9-2.32,22.36-2.99,33.61
			c-0.06,0.96,0.09,2.16,0.63,2.88c3.95,5.31,4.86,11.43,5.26,17.8c0.17,2.75,1.54,5.33,4.69,5.65c3.58,0.36,5.96-1.94,6.24-5.14
			c1.3-14.92,12.5-22.68,22.26-31.53c8.54-2.52,17.52,0.93,26.03-1.93l0.04,0.01c0.69-0.63,1.38-1.25,2.08-1.86l0.01-0.01
			c0.54-0.78,1.34-1.3,2-1.96c0,0,0.13,0.08,0.13,0.08c0.63-0.01,1.27-0.05,1.9-0.1c0.41,0.08,0.81,0.16,1.22,0.23
			c1.2,0.51,2.03,1.37,2.52,2.58c0.08,0.41,0.16,0.81,0.24,1.22c-3.55,4.88-7.96,8.92-12.26,13.1c-3.76,3.66-7.31,5.05-12.39,2.16
			c-8.09-4.61-15.28-2.18-21.85,3.78c-4.01,3.63-4.47,8-3.47,12.76c0.93,4.41,4.55,5.23,8.36,5.72c3.73,0.48,7.87,0.78,5.75,6.5
			c-7.86,0.06-15.59-1.35-23.24,3.17c-7.12,4.21-17.45-1.13-16.99-9.28c0.65-11.35-4.72-21.89-3.17-30.88
			c1.76,16.28,3.69,34.72,7.97,52.84c0.94,3.99,3.85,8.57-2.92,10.42c-5.2-4.75-7.09-10.84-7.05-17.66
			C594.82,1254.42,595.12,1251.1,592.35,1248.58z"/>
		<path class="st33" d="M665.9,1204.9c-8.45,3.69-17.35,1.35-26.02,1.94c0.04-0.59,0.1-1.18,0.18-1.77
			C648.67,1205.01,657.29,1204.95,665.9,1204.9z"/>
		<path class="st44" d="M1999.69,1183.96c-0.84,6.35-1.48,13.63-2.85,20.78c-1.69,8.82-3.36,17.63-3.06,26.61
			c0.32,9.68-4.95,17.76-7.05,26.74c-0.3,1.28-1.3,2.46-2.84,2.31c-2.01-0.19-2.73-1.82-2.75-3.51c-0.03-2.3-0.11-4.73,0.57-6.88
			c5.42-17.36,5.01-35.38,5.89-53.2c0.41-8.27,4.15-15.26,6.47-22.81c0.39-1.28,1.52-2.27,3.04-1.93c1.5,0.34,2.01,1.73,2.14,3.05
			C1999.48,1177.74,1999.52,1180.39,1999.69,1183.96z"/>
		<path class="st31" d="M815.99,1261.12c-0.01,0.57-0.04,1.14-0.1,1.7c-5.72-0.43-1.07-5.94-3.84-7.81
			c-0.05-0.65-0.09-1.31-0.12-1.97c-1.38-2.64-3.44-4.6-6-6.09c-3.53-0.86-7.02-2.02-10.6-2.52c-7.15-0.99-7.51-1.33-4.5-7.25
			c2.55-5.01,5.18-9.98,7.8-14.96c4.79-9.13,4.8-9.12,13.35-3.24c0.62,0.77,1.44,1.32,2.2,1.93c0.6,0.62,1.2,1.24,1.8,1.86
			c0.64,0.75,1.26,1.53,2.03,2.16l-0.04-0.04c0.64,0.71,1.32,1.39,2.04,2.02l0.02-0.03c1.5,8.73,1.49,17.47,0,26.2
			c0,0.61-0.03,1.23-0.08,1.84c-0.78,0.62-1.33,1.45-1.95,2.21c-0.03,0.63-0.09,1.25-0.16,1.88
			C817.19,1259.7,816.57,1260.39,815.99,1261.12z"/>
		<path class="st85" d="M812.06,1255.01c1.28,2.61,2.56,5.21,3.84,7.82c-4.58,9.36-10.49,17.51-19.93,22.64
			c-7.36,4-16.62,0.08-18.63-8.05c-0.61-2.47,0.2-4.5,1.83-6.36c2.9-3.32,5.92-1.74,8.96-0.31l0.02,0
			C803.05,1276.05,811.23,1270.66,812.06,1255.01z"/>
		<path class="st86" d="M788.12,1270.75c-1.5-4.87-2.18-9.73-0.16-14.65c2.16-5.25,6.03-8.15,10.41-7.67
			c5.2,0.56,10.44,5.41,11,10.16c0.5,4.31-2.26,8.28-7.47,10.68c-4.42,2.04-9.13,1.42-13.77,1.48
			C788.14,1270.76,788.12,1270.75,788.12,1270.75z"/>
		<path class="st85" d="M820.04,1253.11c0-8.73,0-17.47,0-26.2C823,1235.64,822.71,1244.37,820.04,1253.11z"/>
		<path class="st85" d="M805.94,1246.96c3.08,0.97,5.08,2.99,6,6.08C809.94,1251.01,807.94,1248.99,805.94,1246.96z"/>
		<path class="st85" d="M814.19,1220.92c-0.73-0.64-1.47-1.29-2.2-1.93C812.72,1219.64,813.46,1220.28,814.19,1220.92z"/>
		<path class="st85" d="M818.01,1257.16c0.65-0.74,1.3-1.48,1.95-2.21C819.31,1255.68,818.66,1256.42,818.01,1257.16z"/>
		<path class="st85" d="M815.99,1261.12c0.62-0.7,1.23-1.39,1.85-2.09C817.23,1259.73,816.61,1260.43,815.99,1261.12z"/>
		<path class="st85" d="M820.02,1226.94c-0.68-0.67-1.36-1.35-2.04-2.02C818.66,1225.59,819.34,1226.26,820.02,1226.94z"/>
		<path class="st85" d="M818.01,1224.95c-0.68-0.72-1.35-1.44-2.03-2.16C816.66,1223.51,817.34,1224.23,818.01,1224.95z"/>
		<path class="st87" d="M1532.01,1202.9c8.62,12.18,5.04,25.42,3.28,38.48c-0.16,1.2-1,2.5-1.91,3.37
			c-3.83,3.67-21.24,2.67-24.47-1.35c-1.51-1.87-2.04-4.1-2.04-6.51c0.03-12.72,6.02-22.79,14.18-31.89
			c3.11-3.47,6.92-3.46,10.97-2.07C1532.02,1202.92,1532.01,1202.9,1532.01,1202.9z"/>
		<path class="st82" d="M1367.95,1308.9c10.63,9.42,23.35,6.88,35.04,4.48c10.54-2.16,20.61-7.13,29.63-13.55
			c6.26-4.46,11.67-9.72,16.15-16c2.05-2.87,3.19-6.56,7.01-8.68c2.59,2.53,0.73,4.74-0.32,6.93
			c-6.16,12.89-14.35,24.56-21.96,36.58c-9.59,10.66-21.51,18.35-35.01,22.08c-21.88,6.03-43.68,3.59-55.96-19.31
			c-0.63-1.17-1.5-2.37-1.63-3.61c-1.56-15.08-4.53-30.19,0.03-46.03c4.35,2.25,3.24,5.91,3.46,8.76
			c0.62,7.96,3.47,14.83,8.98,20.61C1357.37,1305.34,1361.83,1308.69,1367.95,1308.9z"/>
		<path class="st82" d="M1042.08,1247.03c-1.33,0-2.67,0.04-4-0.01c-10.84-0.41-14.03-4.83-11.99-15.42
			c1.89-9.84,6.75-18,13.08-25.42c5.21-6.11,9.68-5.86,14.6,0.4c2.36,3,3.25,6.51,3.82,10.16c1.38,8.75-0.94,17.23-1.96,25.79
			c-0.36,3.05-2.44,4.61-5.55,4.63c-2.66,0.02-5.33,0-7.99,0C1042.08,1247.12,1042.08,1247.08,1042.08,1247.03z"/>
		<path class="st88" d="M1027.95,1274.92c0.17-0.51,0.34-1.02,0.5-1.53c1.93-1.38,3.86-2.77,5.8-4.15
			c4.47-4.04,8.93-8.09,13.4-12.13c-1.8,11.7-8.89,19.38-17.63,25.89C1023.09,1281.4,1023.09,1281.4,1027.95,1274.92z"/>
		<path class="st11" d="M601.85,1275.37c-3.94-9.85-2.38-21.09-7.86-30.59c-0.74-1.29-0.97-3.41-0.46-4.79
			c4.06-10.98,1.84-22.38,2.52-33.58c0.19-3.14-0.79-6.59,2.27-9.85c2.51,4.07,1.42,7.95,0.72,11.61
			c-1.23,6.42-1.15,12.48,2.65,18.18c2.31,3.45,2,7.61,2.45,11.56c0.77,6.71,3.29,9.9,7.58,10.06c4.29,0.17,6.42-2.29,8.21-9.47
			c0.16-0.64,0.21-1.31,0.39-1.95c0.08-0.29,0.37-0.52,1.37-1.86c1.7,7.18,6.28,10.22,12.84,10.65c2.44,0.16,4.19,1.86,5.66,3.75
			c0,0-0.05-0.08-0.05-0.08c-6.14,7.94-7.13,18.66-14.08,26.17c-1.31,0.96-2.59,1.96-3.92,2.88
			C612.2,1284.94,610.04,1284.65,601.85,1275.37z"/>
		<path class="st84" d="M700.14,1179.1c-0.76,1.25-1.51,2.51-2.27,3.76c-6.61,6.73-13.21,13.47-19.82,20.2
			c-0.35-0.1-0.7-0.2-1.05-0.3c-0.6-0.41-1.03-0.97-1.27-1.65c-0.05-0.67,0.1-1.32,0.43-1.9c0.4-0.46,0.86-0.88,1.35-1.24
			c0.48-0.3,0.93-0.65,1.33-1.06c0.4-0.36,0.76-0.77,1.08-1.21c0,0-0.04-0.8-0.04-0.8c3.02-4.44,7.8-7.86,8.03-13.91
			C691.79,1179.07,694.74,1171.2,700.14,1179.1z"/>
		<path class="st84" d="M626.07,1275.19c1.95-8.05,8.15-14.31,9.51-22.67c0.31-1.93,2.7-2.75,4.57-3.5
			C636.79,1258.46,633.99,1268.21,626.07,1275.19z"/>
		<path class="st84" d="M678.06,1203.06c-0.67,0.67-1.34,1.34-2,2.01c0,0-0.15-0.29-0.15-0.29c-0.4-1.69,0.21-2.34,1.92-1.88
			L678.06,1203.06z"/>
		<path class="st89" d="M530.18,1179.19c-3.02-0.84-5.03-2.67-6.24-5.63c-0.72-1.75-1.64-4.06-3.12-4.75
			c-7.37-3.46-5.15-8.55-2.84-13.8c0.52-0.84,0.97-1.76,1.59-2.52c1.85-2.28,2.49-6.05,5.53-6.73c3.68-0.83,4.18,3.57,6.34,5.39
			c9.83,8.32,16.84,9.28,28.07,3.47c0.88-0.46,1.72-1,2.63-1.39c1.25-0.53,2.77-0.96,3.63,0.29c1.25,1.81-0.21,3.12-1.55,4.03
			c-5.75,3.9-11.55,7.74-17.39,11.51c-2.22,1.43-4.6,2.63-6.9,3.93c-2.55,1.54-5.83,1.68-7.9,4.14l0.01-0.1
			c-0.72,0.64-1.48,1.24-2.04,2.04L530.18,1179.19z"/>
		<path class="st89" d="M555.98,1129.03c1.2,3.97-1.28,4.92-4.27,4.56c-6.05-0.72-11.94-0.19-17.77,1.38l0.11,0.1
			c1.32-2.01,2.64-4.02,3.96-6.03c0.46-0.01,0.93-0.01,1.39-0.02c5.08-0.85,10.16-1.69,15.26-0.1
			C555.1,1128.95,555.54,1128.99,555.98,1129.03z"/>
		<path class="st56" d="M532.04,1177.12c1.99-2.6,4.72-3.8,7.9-4.14C537.65,1175.04,534.95,1176.28,532.04,1177.12z"/>
		<path class="st89" d="M538,1129.04c-0.02-0.68-0.04-1.36-0.06-2.04c0,0,0.01-0.01,0.01-0.01c2.63-0.74,5.26-1.47,7.88-2.21
			c0.28,0.43,0.57,0.86,0.85,1.29c-1.46,4.76-4.72,4.52-8.44,3.03L538,1129.04z"/>
		<path class="st89" d="M533.94,1134.96c-0.34,0.67-0.37,1.63-1.48,1.6c0.03-0.24-0.02-0.59,0.11-0.68
			c0.45-0.32,0.97-0.55,1.47-0.81C534.04,1135.07,533.94,1134.96,533.94,1134.96z"/>
		<path class="st89" d="M545.83,1124.79c2.1-1.14,4.16-1.1,6.17,0.23c-0.27,0.43-0.55,0.86-0.82,1.29c-2.1,1.17-3.88,0.97-5.17-1.24
			L545.83,1124.79z"/>
		<path class="st89" d="M551.99,1125.02c0.67,0.66,1.34,1.33,2.01,1.99c-0.34,0.19-0.68,0.38-1.03,0.58
			c-1.21-0.44-2.06-1.05-1.06-2.45L551.99,1125.02z"/>
		<path class="st89" d="M554.01,1127.01c0.66,0.67,1.32,1.34,1.98,2.01c0,0-0.22,0.01-0.22,0.01c-1.93,0.57-2.47-0.15-1.82-1.97
			L554.01,1127.01z"/>
		<path class="st56" d="M522.1,1185.12c-0.7,0.62-1.41,1.25-2.11,1.87c0,0-0.02-0.25-0.02-0.25c-0.53-1.86,0.02-2.55,1.92-1.77
			L522.1,1185.12z"/>
		<path class="st56" d="M530.01,1179.07c0.68-0.68,1.36-1.36,2.04-2.04C531.37,1177.71,530.69,1178.39,530.01,1179.07z"/>
		<path class="st7" d="M1478.03,993.41c2.52-0.46,4.4-3.1,7.34-2.23c-3.91,16.82-24.16,31.79-45.29,33.5
			c-2.21-2.64-5.29-3.81-8.3-5.23c-8.43-3.97-15.14-16.44-13.9-25.42c0.27-1.99,0.53-4.09,2.69-4.92c2.23-0.85,4,0.43,5.04,2.13
			c4.44,7.26,10.24,11.59,19.31,11.54C1456.95,1002.72,1468.98,1003.55,1478.03,993.41z"/>
		<path class="st5" d="M1165.81,987.46c3.16,10.19,8.08,14.55,17.93,15.14c5.56,0.33,11.16,0.07,16.74-0.12
			c6.15-0.21,11.58-2.23,15.73-6.99c0.95-0.3,1.89-0.61,2.84-0.91c1.6-0.5,3.31-1.06,4.54,0.57c1.13,1.51,0.77,3.31-0.29,4.61
			c-2.73,3.32-5.62,6.51-8.54,9.67c-2.92,3.16-5.95,6.21-8.93,9.31c-3.23,0.65-7.05,0.42-9.57,2.12
			c-9.49,6.42-17.79,1.34-25.93-2.36c-6.04-2.75-8.53-9.19-9.89-15.22c-1.14-5.03-0.52-10.47-0.51-15.72c0-1.59,0.4-3.57,2.58-3.44
			C1164.33,984.22,1164.86,986.18,1165.81,987.46z"/>
		<path class="st87" d="M1214.11,949.24c5.22-1.95,10.42,0.25,15.63,0.08c0,0,0.17-0.04,0.17-0.04c0.72,0.58,1.39,1.21,2,1.91
			l0.02,0.02c0.69,0.62,1.35,1.29,1.97,1.98l-0.01,0.03c1.29,0.98,0.83,2.92,2.15,3.88l0.01,0.02c1.35,4.02,1.55,8.02-0.15,12
			l-0.01-0.03c-5.74,2.64-8.65-5.05-14-3.83C1213.61,962.69,1213.39,956.19,1214.11,949.24z"/>
		<path class="st71" d="M1221.91,965.26c5.19-0.64,9.34,2.53,14,3.83c-1.41,2.76-3.41,2.47-5.65,1.11
			C1227.48,968.53,1224.69,966.9,1221.91,965.26z"/>
		<path class="st71" d="M1235.91,969.12c0.05-4,0.1-8,0.15-12C1237.92,961.14,1237.97,965.14,1235.91,969.12z"/>
		<path class="st42" d="M1223.93,931.14c-0.4,0.42-0.8,0.85-1.2,1.27c-0.41-1.27,0.89-0.75,1.26-1.21
			C1223.99,931.2,1223.93,931.14,1223.93,931.14z"/>
		<path class="st71" d="M1236.04,957.09c-0.72-1.29-1.43-2.59-2.15-3.88C1234.61,954.51,1235.33,955.8,1236.04,957.09z"/>
		<path class="st71" d="M1233.9,953.19c-0.66-0.66-1.31-1.32-1.97-1.98C1232.58,951.87,1233.24,952.53,1233.9,953.19z"/>
		<path class="st71" d="M1231.9,951.19c-0.67-0.64-1.33-1.27-2-1.91C1230.57,949.91,1231.24,950.55,1231.9,951.19z"/>
		<path class="st7" d="M1494.15,962.4c-0.13,7.08-1.25,7.67-8.2,4.57c-2.72-1.21-5.68-1.94-8.26-3.37c-4.8-2.66-6.7-8.16-4.64-12.74
			c1.52-3.36,4.01-5.12,7.91-4.48C1489.3,947.73,1494.31,953.77,1494.15,962.4z"/>
		<path class="st58" d="M1461.83,1259.77c1.18,0.2,1.52,1.05,1.4,2.08c-0.13,1.03-0.71,1.89-1.85,1.61
			c-0.42-0.1-0.84-0.97-0.91-1.53C1460.35,1260.94,1460.65,1260.02,1461.83,1259.77z"/>
		<path class="st5" d="M1384.97,960.47c-2.38-2.8-3.48-3.49-3.53-4.25c-0.72-10.28,0.06-20.53,0.89-30.77
			c0.1-1.3,0.68-2.74,2.25-2.91c1.58-0.17,2.45,1.07,2.58,2.41C1388.26,936.15,1388.12,947.26,1384.97,960.47z"/>
		<path class="st16" d="M1672.06,905.06c0.89,1.74,2.01,3.4,2.61,5.23c2.53,7.74-0.22,12.2-8.23,12.55
			c-4.98,0.22-10.61,1.75-14.37-3.53c5.57-5,9.31-11.19,11.78-18.19c6.8-7.03,5.88,1.85,8.23,3.99L1672.06,905.06z"/>
		<path class="st8" d="M1689.62,875.63c-4.25-0.18-8.51-0.27-12.75-0.61c-1.24-0.1-2.6-0.87-2.64-2.47
			c-0.04-1.47,0.9-2.52,2.27-2.76c8.49-1.48,17.06-1.55,25.32,0.79c4.48,1.27,4.23,5.23,2.41,8.94c-0.44-0.12-0.88-0.24-1.32-0.35
			c-3.34-3.39-7.04-5.87-12.12-4.73C1690.74,875.26,1690.34,875.63,1689.62,875.63z"/>
		<path class="st8" d="M1704.23,879.52c-3.51,3.36-7.44,6.08-12.02,7.8c-1.47,1.17-2.92,1.02-4.35-0.06l0.02,0.02
			c-1.14-1.44-1.07-2.89-0.04-4.35c2.12-2.07,3.89-4.21,1.78-7.31c0,0,0.4-0.54,0.4-0.54c5.89-3.51,9.56,0.81,13.58,3.85
			L1704.23,879.52z"/>
		<path class="st90" d="M1677.9,895.14c-1.45-1.31-3.14-2.66-2.26-4.88c0.85-2.16,2.75-2.84,4.78-1.75
			c1.83,0.98,1.59,2.66,0.41,4.07c-0.83,0.98-1.92,1.73-2.9,2.58C1677.91,895.16,1677.9,895.14,1677.9,895.14z"/>
		<path class="st47" d="M1672.07,905.09c-2.39-2.05-4.35-4.99-8.23-3.99c1.15-2.04,2.62-4.2,5.19-3.41
			C1672.64,898.81,1671.58,902.39,1672.07,905.09z"/>
		<path class="st90" d="M1687.86,887.26c1.45,0.02,2.9,0.04,4.35,0.06c-0.16,0.58-0.3,1.16-0.41,1.74c0,0,0.01-0.02,0.01-0.02
			C1690.49,888.45,1689.17,887.86,1687.86,887.26z"/>
		<path class="st90" d="M1687.84,882.94c0.01,1.45,0.03,2.9,0.04,4.35C1686.78,885.84,1686.83,884.4,1687.84,882.94z"/>
		<path class="st16" d="M1143.41,1237.64c2.8,2.43,2.56,4.71,1.74,6.32c-3.91,7.67-5.61,16.17-9.79,23.82
			c-4.45,8.16-11.82,11.2-19.5,14.26c-2.08,0.83-5.02,1.47-6.5-0.69c-1.83-2.68,1.21-3.99,2.74-5.48c2.13-2.08,4.24-4.32,6.74-5.87
			C1130.94,1262.49,1138.26,1251.38,1143.41,1237.64z"/>
		<path class="st56" d="M2104.35,1277.47c2.47-1.58,4.95-3.15,7.42-4.73c3.61-1.34,5.54-5.62,9.96-5.88
			c2.31,3.53-0.81,5.53-1.84,8.01c0,0,0,0.04,0,0.04c-0.71,0.61-1.23,1.41-1.94,2.02c-2.78,3.26-6.15,5.73-10.47,6.24
			C2102.2,1283.8,2102.16,1281.15,2104.35,1277.47z"/>
		<path class="st47" d="M996.11,955.04c0.07-5.25,0.01-10.51,0.3-15.75c0.11-1.95,1.06-4,3.53-4.01c2.49-0.01,3.43,2.03,3.53,3.99
			c0.29,5.24,0.23,10.5,0.31,15.75c-1.23,1.69-0.43,4.89-3.35,5.24C996.59,960.73,997.49,956.86,996.11,955.04z"/>
		<path class="st10" d="M985.72,998.76c-0.62,0.06-1.24,0.11-1.86,0.16c-2.56-0.03-2.88-2.16-3.64-3.87
			c-0.25-0.73-0.43-1.48-0.53-2.25c2.06-2.5,4.04-5.07,6.21-7.47c0.88-0.97,2.26-1.4,3.53-0.52c1.17,0.81,1.7,2.22,1.2,3.41
			C989.14,991.79,987.38,995.25,985.72,998.76z"/>
		<path class="st91" d="M996.11,955.04c2.56,2.77,5.12,2.81,7.67-0.01c0.06,2.04,0.12,4.07,0.17,6.11c0,0,0,0,0,0
			C997.86,963.55,997.7,963.42,996.11,955.04z"/>
		<path class="st10" d="M975.86,997.06c0.71-1.3,1.43-2.6,2.14-3.89c0.56-0.13,1.13-0.25,1.69-0.37c0,0,0.49,0.7,0.49,0.7
			C981.57,998.1,979.95,999.07,975.86,997.06z"/>
		<path class="st88" d="M1923.94,1272.92c14.75-7,24.15-18.34,27.81-34.32c0.01-0.55,0.06-1.1,0.14-1.64
			c1.99-2.65,4.09-4.08,4.9,0.59c0.44,2.51,0.71,5.29-0.69,7.78c-1.93,5.28-3.75,10.57-5.21,16.03
			c-2.88,10.79-10.73,17.2-20.87,20.8c-5.23,1.86-10.79,2.79-17.25,4.4C1913.68,1278.56,1919.88,1276.61,1923.94,1272.92z"/>
		<path class="st10" d="M1960.46,1222.42c-1.61-0.11-2.11-1.26-2.24-2.56c-0.17-1.58-0.21-3.49,1.57-4.03
			c2.11-0.64,2.63,1.21,2.77,2.81C1962.7,1220.27,1962.34,1221.81,1960.46,1222.42z"/>
		<path class="st10" d="M1956.09,1245.32c-0.67-3.15,1.09-7.54-4.21-8.37c0.34-1.58,0.56-3.39,2.6-3.57
			c1.51-0.13,2.26,1.12,2.6,2.41C1957.92,1239.07,1957.43,1242.25,1956.09,1245.32z"/>
		<path class="st92" d="M965.66,1219.27c-0.17,1.2-0.43,2.38-1.51,2.42c-1.74,0.06-1.9-1.45-1.89-2.73
			c0.01-1.28,0.23-2.92,1.93-2.66C965.76,1216.53,965.61,1218.2,965.66,1219.27z"/>
		<path class="st7" d="M1089.48,1025.71c2.22,0.08,3.14,1,3.86,2.14c1.92,3.02,0.86,5.75-0.98,8.31c-1.18,1.64-2.59,3.35-4.89,2.46
			c-2.15-0.83-2.67-2.94-2.39-5.01C1085.55,1030.24,1087.05,1027.4,1089.48,1025.71z"/>
		<path class="st93" d="M738.19,1249.19c-0.16,1.18-0.32,2.36-0.48,3.53c-3.3-2.19-3.8-5.36-2.66-8.77
			c5.12-15.37,5.33-31.28,4.9-47.18c-0.26-9.64,2.43-18.16,7.2-26.4c3.42,0.96,2.51,3.65,2.49,5.68c-0.03,2.63-0.49,5.27-0.86,7.89
			c-2.02,14.38-6.05,28.51-5.17,43.26c0.24,3.99-1.22,7.83-3,11.44C738.96,1241.99,738.01,1245.45,738.19,1249.19z"/>
		<path class="st5" d="M700.15,1179.1c-4.1,0.49-7.32,6.58-12.23,1.9c0,0,0.03,0.04,0.03,0.04c-2.76-10.1-12.05-5.39-18.13-7.97
			c-5.04-2.38-10.22-0.27-15.52,0.12c2.85-8.82,8.17-12.74,15.96-10.67c7.01,1.87,14.43,1.75,21.17,4.68
			c2.92,1.27,5.79,0.9,8.66-0.15c6.35-2.37,8.1-0.18,5.88,5.93l-0.01,0.03c-0.65,0.67-1.31,1.32-1.98,1.98l-0.02,0.03
			c-0.66,0.68-1.35,1.33-1.97,2.05l0.05-0.05c-0.7,0.66-1.47,1.26-2.04,2.06L700.15,1179.1z"/>
		<path class="st84" d="M669.81,1173.06c2.88,0.06,5.76,0.01,8.63,0.21c4.95,0.34,8.56,2.46,9.5,7.77
			C683.43,1174.91,675.88,1175.68,669.81,1173.06z"/>
		<path class="st84" d="M705.96,1172.98c-0.62-3.3-2.56-5.3-5.88-5.93C706.98,1165.47,707.58,1166.07,705.96,1172.98z"/>
		<path class="st84" d="M674.04,1199.05c1.28-0.73,2.57-1.45,3.85-2.18c0.34,0.34,0.67,0.68,1.01,1.02
			c-0.31,0.36-0.62,0.73-0.93,1.09c-0.84,1-1.84,1.5-3.17,1.01C674.55,1199.68,674.3,1199.37,674.04,1199.05z"/>
		<path class="st84" d="M672.07,1201.05c0.66-0.67,1.31-1.33,1.97-1.99c0,0,0.01,0.07,0.01,0.07c0.47,1.71-0.19,2.32-1.88,1.93
			H672.07z"/>
		<path class="st84" d="M700,1179.06c0.68-0.69,1.36-1.37,2.04-2.06C701.35,1177.69,700.67,1178.38,700,1179.06z"/>
		<path class="st84" d="M677.89,1196.87c0.67-0.65,1.33-1.31,1.99-1.96c0,0,0.13,0.18,0.13,0.18c0.46,0.43,0.6,0.85,0.44,1.26
			c-0.16,0.41-0.32,0.62-0.48,0.62l-0.01,0.01c-0.64,0.79-1.29,0.76-1.95,0.04L677.89,1196.87z"/>
		<path class="st84" d="M703.98,1174.98c0.66-0.66,1.32-1.32,1.98-1.98C705.29,1173.66,704.64,1174.32,703.98,1174.98z"/>
		<path class="st84" d="M701.98,1177.05c0.66-0.68,1.31-1.37,1.97-2.05C703.3,1175.69,702.64,1176.37,701.98,1177.05z"/>
		<path class="st87" d="M975.86,997.06c1.82-0.73,3.2-1.99,4.32-3.57c2.36,1.04,3.29,3.05,3.68,5.43
			c-6.72,8.14-13.49,16.08-23.17,21.13c-14.91,7.77-28.92,7.73-42.19-3.34c-5.25-9.13-6.59-18.63-1.95-29.35
			c0.47,0.84,0.94,1.67,1.41,2.51c7.9,14.28,23.44,20.55,38.65,15.7c5.04-1.61,10.16-2.95,15.25-4.41c0.81-0.59,1.43-1.35,2.04-2.13
			l-0.03,0.03c0.76-0.59,1.5-1.2,2.07-1.98L975.86,997.06z"/>
		<path class="st10" d="M973.89,999.02c-0.68,0.71-1.36,1.42-2.04,2.13C972.53,1000.45,973.21,999.74,973.89,999.02z"/>
		<path class="st10" d="M975.93,997.07c-0.69,0.66-1.38,1.32-2.07,1.98C974.55,998.4,975.24,997.73,975.93,997.07z"/>
		<path class="st44" d="M1641.94,1236.95c-0.66,0-1.31,0.01-1.97,0.01c-0.09-0.72-0.18-1.44-0.27-2.16
			c3.53-4.32,4.96-9.35,4.53-14.8c-0.84-10.67,3.91-19.94,7.11-29.6c0.42-1.27,1.11-2.57,2.6-2.61c2.11-0.06,2.7,1.65,2.93,3.3
			c0.23,1.62,0.38,3.33,0.1,4.92c-2.47,14.24-3.87,28.83-12.8,41.05c0,0-0.43-0.18-0.43-0.18
			C1643.12,1236.19,1642.51,1236.21,1641.94,1236.95z"/>
		<path class="st81" d="M1631.88,1250.79c-1.66,0.97-3.22,2.42-5.01,2.81c-3.78,0.83-5.91-1.2-4.89-4.79
			c0.96-3.39,2.74-6.56,4.16-9.82C1626.2,1243.82,1624.94,1249.29,1631.88,1250.79z"/>
		<path class="st94" d="M1632.03,1247.06c-1.09-0.58-2.36-1.04-2.56-2.46c-0.11-0.74,0.74-1.29,1.09-0.82
			c0.7,0.93,1.01,2.16,1.49,3.26L1632.03,1247.06z"/>
		<path class="st81" d="M1633.91,1246.88c-0.7,1.34-1.4,2.67-2.09,4.01c0.07-1.28,0.15-2.56,0.22-3.84c0,0,0.02-0.02,0.02-0.02
			C1632.67,1247,1633.29,1246.95,1633.91,1246.88z"/>
		<path class="st95" d="M1275.54,965.44c-1.78-10.24-2-20.49-0.83-30.78c0.15-1.3,1.09-2.42,2.62-2.42c1.15,0,1.84,0.94,1.95,1.91
			C1280.51,944.81,1280.37,955.33,1275.54,965.44z"/>
		<path class="st95" d="M1281.46,912.33c1.75,0.17,2.12,1.44,2.12,2.73c0.01,2.22,0.1,4.78-2.69,5.42
			c-1.55,0.36-2.15-1.23-2.08-2.56C1278.91,915.71,1279.07,913.42,1281.46,912.33z"/>
		<path class="st31" d="M1264.67,1278.72c0.75-5.9,1.46-11.81,2.3-17.7c0.23-1.61,0.72-3.38,2.75-3.62
			c1.55-0.19,2.41,1.01,2.81,2.28c1.56,4.96,5.69,8.06,8.55,12.07c4.96,6.97,3.96,15.45-2.3,20.41c-5.01,3.97-9.26,2.97-11.87-2.8
			C1265.85,1287.02,1264.68,1281.45,1264.67,1278.72z"/>
		<path class="st53" d="M1277.97,1242.99c-1.35,0.64-2.7,0.64-4.05,0c0,0,0.03-0.06,0.03-0.06c1.32-1.27,2.65-1.28,3.98-0.01
			L1277.97,1242.99z"/>
		<path class="st16" d="M1029.91,916.6c2.32,5.67,2.17,9.04,0.66,12.86C1028.08,924.77,1028.08,924.77,1029.91,916.6z"/>
		<path class="st96" d="M1350.6,1252.17c-0.36,1.73-0.26,4.15-3.04,3.95c-1.4-0.1-1.86-1.72-1.9-3.05
			c-0.06-2.05,0.23-4.17,2.95-3.99C1350.08,1249.18,1350.53,1250.64,1350.6,1252.17z"/>
		<path class="st3" d="M1769.75,1190.92c-2.61,1.18-5.19,1.04-7.75-0.14c-1.23-1.52-2.49-3.02-3.7-4.57
			c-5.03-6.48-5.21-9.06-0.75-15.77c3.25-4.89,7-9.49,8.4-15.38c3.04-0.81,4.87,0.89,6.7,2.97c2.81,3.19,5.81,6.22,8.73,9.32
			c0.76,4.47-0.7,8.13-3.65,11.53C1774.58,1182.53,1771.44,1186.27,1769.75,1190.92z"/>
		<path class="st82" d="M1789.8,1166.92c3.97-2.08,6.43-5.63,9.01-9.11c2.57-3.46,5.38-3.21,8.38-0.36
			c4.64,4.42,5.38,9.73,3.64,15.54c-0.56,1.86-1.62,3.66-2.78,5.25c-2.38,3.26-3.34,8.62-9.31,7.1c-5.53-1.41-9.29-7.12-9.07-13.49
			c0.06-1.66,0.09-3.31,0.13-4.97C1789.8,1166.87,1789.8,1166.92,1789.8,1166.92z"/>
		<path class="st31" d="M1237.99,908.81c0.14-3.66,0.65-6.93,2.76-9.69c2.58-3.38,7.32-4.64,10.65-2.7c3.7,2.16,4.38,5.61,3.45,9.5
			c-0.8,3.37-2.81,6.03-5.57,8c-2.65,1.89-5.47,4.55-8.96,2.7C1237.17,914.97,1238.23,911.4,1237.99,908.81z"/>
		<path class="st97" d="M2047.91,1280.9c-5.82,3.36-12.68,3.47-18.79,5.95c-0.77,0.31-1.83-0.11-3.24-0.23
			c0.37-4.65,3.65-6.87,6.42-9.53c7.12-6.81,15.86-11.86,21.71-20.03c0.59-0.75,1.2-1.48,1.93-2.09l0,0
			c0.6-0.72,1.36-1.29,1.91-2.06c0,0-0.01-0.04-0.01-0.04c5.18-4.69,7.45-11.17,9.59-18.7c4.77,4.64,3.57,8.43,2.2,12.03
			c-3.14,8.28-6.46,16.49-9.71,24.72v0C2059.18,1278.18,2051.93,1277.6,2047.91,1280.9z"/>
		<path class="st92" d="M2073.89,1216.16c1.65,0.34,1.8,1.66,1.75,2.94c-0.05,1.29-0.3,2.82-2.06,2.46
			c-0.58-0.12-1.14-1.48-1.27-2.33C2072.13,1217.98,2072.3,1216.64,2073.89,1216.16z"/>
		<path class="st98" d="M2074.67,1129.82c6.09,0.5,13.47,11.63,11.53,16.86c-1.26,3.38-3.02,6.72-5.2,9.58
			c-6.53,8.53-15.33,8.03-21.19-0.91c-0.97-1.49-1.38-3.06-0.99-4.72c1.9-8.1,6.94-14.21,12.91-19.64
			C2072.61,1130.19,2074.09,1130.04,2074.67,1129.82z"/>
		<path class="st5" d="M1465.85,1241c0.03-8.29,0.03-16.58,0.09-24.87c0.02-2.31-0.13-4.68,1.05-6.79c0.29-0.52,0.92-1.08,1.48-1.19
			c1.11-0.22,2.24,0.65,2.08,1.53c-1.86,10.42,3.25,21.88-4.66,31.38C1465.89,1241.07,1465.85,1241,1465.85,1241z"/>
		<path class="st63" d="M1116.12,956.79c0.02-3.71,0.04-7.42,0.06-11.12c2.56-6.66,0.23-14.25,2.98-20.94
			c3.51,0.77,3.49,3.05,3.69,4.83c0.96,8.57-0.54,17.06-1.24,25.56C1121.32,958.66,1118.94,959.45,1116.12,956.79z"/>
		<path class="st99" d="M431.53,1245.89c-0.12,1.42-0.64,2.7-2.22,2.7c-1.58,0-2.2-1.28-2.2-2.7c0-1.43,0.66-2.68,2.23-2.69
			C430.94,1243.19,431.45,1244.46,431.53,1245.89z"/>
		<path class="st43" d="M2047.91,1280.9c3.33-4.14,9.3-5.09,12.01-9.97c-0.06,1.96-0.12,3.92-0.18,5.88
			c-0.64,0.65-1.28,1.3-1.92,1.95c-2.01,0.63-4.02,1.27-6.03,1.9C2050.49,1280.74,2049.2,1280.82,2047.91,1280.9z"/>
		<path class="st43" d="M2057.85,1252.91c-0.64,0.69-1.27,1.37-1.91,2.06C2056.58,1254.28,2057.22,1253.59,2057.85,1252.91z"/>
		<path class="st43" d="M2055.95,1254.97c-0.65,0.7-1.29,1.39-1.94,2.09C2054.66,1256.36,2055.3,1255.67,2055.95,1254.97z"/>
		<path class="st87" d="M689.32,1323.97c0.08,6.04-8.63,16.97-14.15,18.3c-5.4,1.3-8.65-2.15-11.89-5.49
			c-2.98-3.07-2.87-6.6-0.8-9.99c2.91-4.77,5.77-9.64,9.26-13.97c3.35-4.16,6.23-4.21,10.13-0.68
			C685.54,1315.47,688.99,1319.11,689.32,1323.97z"/>
		<path class="st11" d="M1680.18,1131.2c-2.96-0.26-5.95-0.34-8.65-1.85c-5.62-3.15-7.26-7.43-4.46-13.23
			c1.71-3.54,3.8-7.02,6.32-10.02c3.85-4.59,8.13-3.82,10.86,1.56c2.1,4.14,1.5,8.39,0.1,12.53c-1.26,3.74-2.84,7.39-4.27,11.07
			C1680.08,1131.27,1680.18,1131.2,1680.18,1131.2z"/>
		<path class="st33" d="M1277.93,1242.93c-1.33,0-2.65,0.01-3.98,0.01c0.07-2.57,0.13-5.15,0.2-7.72
			C1277.23,1236.91,1277.87,1239.77,1277.93,1242.93z"/>
		<path class="st68" d="M1501.72,909.01c0.68-0.66,1.37-1.32,2.05-1.99c0,0,0.36,0.48,0.36,0.48c0.1,0.99-0.29,1.7-1.19,2.13
			C1502.54,909.42,1502.13,909.21,1501.72,909.01z"/>
		<path class="st68" d="M1499.6,910.9c0.71-0.63,1.42-1.26,2.13-1.89c0,0,0.36,0.34,0.36,0.34c0.82,1.22,0.25,1.98-0.83,2.59
			C1500.46,911.99,1499.91,911.64,1499.6,910.9z"/>
		<path class="st68" d="M1497.49,912.78c0.7-0.62,1.41-1.25,2.11-1.87c0,0,0.46,0.41,0.46,0.41c0.4,1.67-0.22,2.34-1.91,1.96
			C1498.15,913.28,1497.49,912.78,1497.49,912.78z"/>
		<path class="st89" d="M521.89,1184.98c-0.64,0.59-1.28,1.18-1.92,1.77C519.26,1184.7,520.15,1184.37,521.89,1184.98z"/>
		<path class="st89" d="M513.98,1190.98L513.98,1190.98L513.98,1190.98z"/>
		<path class="st89" d="M516.25,1191.18c-0.76-0.07-1.51-0.14-2.27-0.2l0,0.01c0.78,0.05,1.57,0.09,2.36,0.14
			C516.34,1191.13,516.25,1191.18,516.25,1191.18z"/>
		<path class="st85" d="M1596.02,961c-12.51-4.18-14.08-8.59-7.21-20.25c5.5-9.32,5.5-9.32,13.19-7.83
			c1.63,3.02,3.54,5.52,7.54,5.32c1.7-0.08,3.37,0.43,2.31,2.86c-2.61,4.51-5.3,8.97-7.79,13.54
			C1602.26,957.96,1600.04,960.56,1596.02,961z"/>
		<path class="st63" d="M1611.86,941.1c-3.8-2.11-8.6-3.01-9.86-8.18c1.25,0.81,2.49,1.61,3.74,2.42
			C1607.75,937.3,1612.61,936.23,1611.86,941.1z"/>
		<path class="st63" d="M1618.15,931.28c0.59,0.61,1.18,1.23,1.77,1.84C1619.33,932.51,1618.74,931.9,1618.15,931.28z"/>
		<path class="st100" d="M1543.93,983.05c-1.94-0.1-4.29,0.35-5.33-1.7c-1.18-2.32,0.99-3.55,2.45-4.78
			c1.51-1.27,3.17-2.38,4.76-3.55c0.74-0.58,1.54-1.09,2.05-1.92c0,0-0.05-0.06-0.05-0.06c1.31-0.92,2.97-2.87,3.88-2.57
			c2.83,0.94,1.39,3.34,0.37,4.73C1549.55,976.63,1546.66,979.79,1543.93,983.05z"/>
		<path class="st58" d="M1547.86,971.1c-0.68,0.64-1.37,1.28-2.05,1.92C1546.49,972.38,1547.17,971.74,1547.86,971.1z"/>
		<path class="st101" d="M2093.65,1286.71c-0.1,0.27-0.12,0.65-0.32,0.78c-0.2,0.13-0.7,0.14-0.83-0.01
			c-0.57-0.61-0.39-1.12,0.44-1.26C2093.14,1286.2,2093.41,1286.54,2093.65,1286.71z"/>
		<path class="st29" d="M2117.95,1276.93c0.65-0.67,1.29-1.35,1.94-2.02C2119.25,1275.58,2118.6,1276.26,2117.95,1276.93z"/>
		<path class="st85" d="M1498.15,913.28c0.64-0.66,1.27-1.31,1.91-1.96c0.68-0.66,1.35-1.31,2.03-1.97
			c0.68-0.62,1.36-1.24,2.04-1.85c4.01-0.32,7.01-3.31,11.54-4.64c0.32,4.96-3.92,7.82-4.16,11.89
			C1506.99,914.82,1502.07,918.62,1498.15,913.28z"/>
		<path class="st33" d="M668.03,1203.05c-0.69,0.62-1.39,1.24-2.08,1.86C666.64,1204.29,667.33,1203.67,668.03,1203.05z"/>
		<path class="st33" d="M670.04,1201.07c-0.67,0.65-1.33,1.31-2,1.96C668.71,1202.38,669.38,1201.72,670.04,1201.07z"/>
		<path class="st81" d="M1641.94,1236.95c0.6-0.25,1.2-0.27,1.82-0.06C1643.14,1236.91,1642.54,1236.93,1641.94,1236.95z"/>
		<path class="st7" d="M500.24,1221.08c0.61-0.65,1.23-1.3,1.85-1.95c10.04-1.32,16.29,6.06,23.55,10.72
			c3.2,2.06,3.17,15.88,0.94,18.99c-1.95,2.72-4.64,2.42-7.08,1.1c-4.07-2.2-8.11-4.33-12.55-5.8c-4.75-1.57-6.41-5.55-5.89-10.27
			C501.54,1229.52,501.11,1225.31,500.24,1221.08z"/>
		<path class="st11" d="M606.08,1165.01c-0.96,2.37-1.93,4.74-3.21,7.91c-1.06-3.14-1.21-5.62,0-7.89c0.82-1.53,2.18-0.72,3.26,0.11
			C606.13,1165.13,606.08,1165.01,606.08,1165.01z"/>
		<path class="st5" d="M672.17,1201.05c0.63-0.64,1.25-1.28,1.88-1.93c1.31-0.05,2.62-0.09,3.92-0.14
			c-0.05,1.31-0.09,2.61-0.14,3.92c-0.64,0.63-1.28,1.26-1.92,1.88C674.19,1204.01,672.94,1202.77,672.17,1201.05z"/>
		<path class="st5" d="M678.01,1197.02c0.65-0.02,1.3-0.03,1.95-0.04c-0.66,0.66-1.33,1.33-1.99,1.99
			C677.98,1198.33,678,1197.67,678.01,1197.02z"/>
		<path class="st5" d="M679.98,1196.97c0.01-0.63,0.02-1.26,0.04-1.88C680.23,1195.72,680.22,1196.35,679.98,1196.97z"/>
		<path class="st102" d="M553.95,1127.06c0.61,0.66,1.22,1.31,1.82,1.97c-5.83,2.66-11.68,2.62-17.53,0.07
			c3.08-0.41,5.71-1.65,7.76-4.03c1.97,0.02,3.95,0.04,5.92,0.06C552.6,1125.78,553.27,1126.42,553.95,1127.06z"/>
		<path class="st103" d="M1703.6,878.94c-5.7,2.85-9.36-1.5-13.59-3.85c-3.04-0.89-6.09-1.78-9.13-2.68c0.05-0.3,0.11-0.6,0.16-0.9
			c4.93,0,9.87-0.17,14.8,0.05C1700.4,871.76,1703.31,874.07,1703.6,878.94z"/>
		<path class="st85" d="M999.72,940.65c2.67,3.04,2.74,6.05,0.41,9.85C997.02,946.91,998.03,943.77,999.72,940.65z"/>
	</g>
</g>
</svg>
