<?xml version="1.0" standalone="no"?>
<!DOCTYPE svg PUBLIC "-//W3C//DTD SVG 20010904//EN"
 "http://www.w3.org/TR/2001/REC-SVG-20010904/DTD/svg10.dtd">
<svg version="1.0" xmlns="http://www.w3.org/2000/svg"
 width="231.000000pt" height="218.000000pt" viewBox="0 0 231.000000 218.000000"
 preserveAspectRatio="xMidYMid meet">

<g transform="translate(0.000000,218.000000) scale(0.100000,-0.100000)"
fill="#000000" stroke="none">
<path d="M920 1865 c-121 -22 -196 -52 -319 -126 -58 -35 -139 -109 -178 -163
-21 -28 -40 -53 -43 -56 -22 -21 -100 -187 -111 -238 -29 -136 -35 -209 -23
-308 15 -124 26 -167 64 -249 55 -119 144 -233 250 -316 62 -50 203 -123 274
-144 131 -37 312 -39 451 -3 49 12 150 62 227 110 31 20 58 34 61 32 3 -3 35
23 71 57 49 45 66 68 66 88 0 15 15 42 35 66 20 22 38 51 42 65 3 14 14 39 24
57 34 60 69 217 69 307 0 81 -18 198 -41 261 -28 78 -83 178 -101 183 -16 4
-7 16 51 73 39 38 75 69 80 69 5 0 17 -7 25 -16 9 -8 26 -14 38 -12 22 3 23 7
26 114 1 61 -2 123 -8 138 l-10 27 -137 -3 c-80 -2 -138 -7 -140 -13 -2 -6 8
-22 22 -37 14 -15 25 -32 25 -38 0 -18 -93 -100 -113 -100 -10 0 -48 21 -84
46 -117 82 -324 145 -467 143 -33 -1 -90 -7 -126 -14z m280 -49 c93 -21 138
-35 145 -46 4 -6 13 -10 21 -10 24 0 174 -102 174 -118 0 -19 -466 -472 -485
-472 -6 0 -69 59 -140 130 -83 83 -137 130 -150 130 -14 0 -96 -75 -242 -224
-122 -123 -224 -222 -227 -218 -3 3 -6 21 -6 39 0 30 15 48 135 167 130 129
153 163 123 182 -7 4 -56 -39 -125 -111 -70 -73 -117 -115 -123 -109 -12 12
16 133 46 201 13 28 24 54 24 58 0 16 109 161 150 197 81 74 191 148 220 148
9 0 26 7 38 16 64 44 299 67 422 40z m690 -52 c0 -55 -2 -64 -14 -55 -15 12
-31 2 -102 -65 -88 -85 -533 -515 -622 -601 -52 -51 -99 -93 -105 -93 -6 0
-66 54 -132 120 -67 66 -128 120 -136 120 -21 0 -53 -25 -104 -78 -24 -26
-106 -111 -183 -189 -132 -136 -140 -142 -156 -125 -9 10 -16 29 -16 41 0 12
-5 31 -11 42 -9 18 15 46 218 248 l229 228 84 -84 c46 -46 87 -83 92 -83 4 0
28 -22 54 -50 26 -27 55 -50 65 -50 18 0 63 41 334 305 203 197 201 195 235
195 30 0 31 2 25 29 -5 25 2 36 65 100 55 55 70 76 65 91 -6 18 -2 20 54 20
l61 0 0 -66z m-171 -326 c8 -18 24 -55 36 -83 68 -152 80 -307 38 -485 -16
-69 -66 -174 -77 -163 -3 3 -6 138 -6 298 0 239 -3 299 -15 329 -9 22 -22 36
-33 36 -9 0 -54 -38 -99 -84 l-83 -84 0 -385 c0 -353 -1 -385 -17 -399 -18
-16 -77 -48 -88 -48 -3 0 -5 129 -5 288 0 276 -5 325 -33 369 -13 21 -43 2
-120 -75 l-77 -77 -2 -285 -3 -285 -57 -3 -58 -3 0 243 c-1 167 -5 251 -13
269 -13 29 -132 162 -166 186 -17 12 -25 12 -36 3 -13 -10 -15 -64 -15 -331 0
-257 -3 -319 -13 -319 -24 0 -94 39 -101 55 -3 9 -6 107 -6 218 0 216 -9 277
-39 277 -10 0 -58 -37 -105 -83 l-86 -82 0 -53 c0 -28 -2 -52 -5 -52 -11 0
-54 55 -55 68 0 15 379 402 394 402 5 0 65 -54 131 -120 67 -66 130 -120 139
-120 17 0 55 34 221 195 39 39 147 142 240 230 92 88 173 165 179 172 16 18
20 16 35 -19z m-90 -200 c-6 -12 -22 -32 -35 -45 l-24 -24 0 -334 c0 -212 -4
-336 -10 -340 -7 -4 -10 112 -10 341 l0 348 37 38 c41 42 60 49 42 16z m-349
-328 c0 -12 -13 -34 -30 -50 l-30 -29 0 -261 c0 -167 -4 -260 -10 -260 -6 0
-10 96 -10 269 l0 269 38 40 c45 48 42 46 42 22z m-410 -306 c0 -176 -4 -274
-10 -274 -6 0 -10 100 -10 281 0 184 3 278 10 274 6 -4 10 -108 10 -281z
m-270 182 c0 -8 -16 -33 -35 -56 -34 -40 -35 -45 -35 -122 0 -50 -4 -77 -10
-73 -5 3 -10 45 -10 93 l0 86 42 43 c47 48 48 49 48 29z"/>
</g>
</svg>
